<svg xmlns="http://www.w3.org/2000/svg" xmlns:xlink="http://www.w3.org/1999/xlink" viewBox="0 0 2215 1360.74"><defs><style>.cls-1{fill:url(#linear-gradient);}.cls-2{fill:url(#linear-gradient-2);}.cls-3{fill:#bdd0fb;}.cls-4,.cls-86{fill:#fff;}.cls-5{fill:url(#linear-gradient-3);}.cls-6{fill:url(#linear-gradient-4);}.cls-7{fill:#91b3fa;}.cls-8{fill:url(#linear-gradient-5);}.cls-9{fill:url(#linear-gradient-6);}.cls-10{fill:#f0f0f0;}.cls-11{fill:url(#linear-gradient-7);}.cls-12{fill:url(#linear-gradient-8);}.cls-13{fill:url(#linear-gradient-9);}.cls-14{fill:url(#linear-gradient-10);}.cls-15{fill:url(#linear-gradient-11);}.cls-16{fill:url(#linear-gradient-12);}.cls-17{fill:url(#linear-gradient-13);}.cls-18{fill:url(#linear-gradient-14);}.cls-19{fill:url(#linear-gradient-15);}.cls-20{fill:url(#linear-gradient-16);}.cls-21{fill:url(#linear-gradient-17);}.cls-22{fill:url(#linear-gradient-18);}.cls-23{fill:url(#linear-gradient-19);}.cls-24{fill:url(#linear-gradient-20);}.cls-25{fill:url(#linear-gradient-21);}.cls-26{fill:url(#linear-gradient-22);}.cls-27{fill:url(#linear-gradient-23);}.cls-28{fill:url(#linear-gradient-24);}.cls-29{fill:url(#linear-gradient-25);}.cls-30{fill:url(#linear-gradient-26);}.cls-31{fill:url(#linear-gradient-27);}.cls-32{fill:url(#linear-gradient-28);}.cls-33{fill:url(#linear-gradient-29);}.cls-34{fill:url(#linear-gradient-30);}.cls-35{fill:url(#linear-gradient-31);}.cls-36{fill:url(#linear-gradient-32);}.cls-37{fill:url(#linear-gradient-33);}.cls-38{fill:url(#linear-gradient-34);}.cls-39{fill:url(#linear-gradient-35);}.cls-40{fill:url(#linear-gradient-36);}.cls-41{fill:url(#linear-gradient-37);}.cls-42{fill:url(#linear-gradient-38);}.cls-43{fill:url(#linear-gradient-39);}.cls-44{fill:url(#linear-gradient-40);}.cls-45{fill:url(#linear-gradient-41);}.cls-46{fill:url(#linear-gradient-42);}.cls-47{fill:url(#linear-gradient-43);}.cls-48{fill:url(#linear-gradient-44);}.cls-49{fill:url(#linear-gradient-45);}.cls-50{fill:url(#linear-gradient-46);}.cls-51{fill:url(#linear-gradient-47);}.cls-52{fill:url(#linear-gradient-48);}.cls-53{fill:url(#linear-gradient-49);}.cls-54{fill:url(#linear-gradient-50);}.cls-55{fill:url(#linear-gradient-51);}.cls-56{fill:url(#linear-gradient-52);}.cls-57{fill:url(#linear-gradient-53);}.cls-58{fill:url(#linear-gradient-54);}.cls-59{fill:url(#linear-gradient-55);}.cls-60{fill:url(#linear-gradient-56);}.cls-61{fill:url(#linear-gradient-57);}.cls-62{fill:url(#linear-gradient-58);}.cls-63{fill:url(#linear-gradient-59);}.cls-64{fill:url(#linear-gradient-60);}.cls-65{fill:url(#linear-gradient-61);}.cls-66{fill:url(#linear-gradient-62);}.cls-67{fill:url(#linear-gradient-63);}.cls-68{fill:url(#linear-gradient-64);}.cls-69{fill:url(#linear-gradient-65);}.cls-70{fill:url(#linear-gradient-66);}.cls-71{fill:url(#linear-gradient-67);}.cls-72{fill:url(#linear-gradient-68);}.cls-73{fill:url(#linear-gradient-69);}.cls-74{fill:url(#linear-gradient-70);}.cls-75{fill:url(#linear-gradient-71);}.cls-76{fill:url(#linear-gradient-72);}.cls-77{fill:url(#linear-gradient-73);}.cls-78{fill:url(#linear-gradient-74);}.cls-79{fill:url(#linear-gradient-75);}.cls-80{fill:url(#linear-gradient-76);}.cls-81{fill:url(#linear-gradient-77);}.cls-82{fill:url(#linear-gradient-78);}.cls-83{fill:url(#linear-gradient-79);}.cls-84{fill:url(#linear-gradient-80);}.cls-85{fill:url(#linear-gradient-81);}.cls-86,.cls-87{opacity:0.71;}.cls-88{fill:url(#linear-gradient-82);}.cls-89{fill:url(#linear-gradient-83);}.cls-90{fill:url(#linear-gradient-84);}.cls-91{fill:url(#linear-gradient-85);}.cls-92{fill:url(#linear-gradient-86);}.cls-93{fill:url(#linear-gradient-87);}.cls-94{fill:url(#linear-gradient-88);}.cls-95{fill:url(#linear-gradient-89);}.cls-96{fill:url(#linear-gradient-90);}.cls-97{fill:url(#linear-gradient-91);}.cls-98{fill:url(#linear-gradient-92);}.cls-99{fill:url(#linear-gradient-93);}.cls-100{fill:url(#linear-gradient-94);}.cls-101{fill:url(#linear-gradient-95);}.cls-102{fill:url(#linear-gradient-96);}.cls-103{fill:url(#linear-gradient-97);}.cls-104{fill:url(#linear-gradient-98);}.cls-105{fill:url(#linear-gradient-99);}.cls-106{fill:url(#linear-gradient-100);}.cls-107{fill:url(#linear-gradient-101);}.cls-108{fill:url(#linear-gradient-102);}.cls-109{fill:url(#linear-gradient-103);}.cls-110{fill:url(#linear-gradient-104);}.cls-111{fill:url(#linear-gradient-105);}</style><linearGradient id="linear-gradient" x1="928.2" y1="-54.58" x2="1559.63" y2="1735.1" gradientUnits="userSpaceOnUse"><stop offset="0" stop-color="#dae3fe"/><stop offset="1" stop-color="#e9effd"/></linearGradient><linearGradient id="linear-gradient-2" x1="1086.13" y1="1332.58" x2="1476.6" y2="161.15" gradientUnits="userSpaceOnUse"><stop offset="0" stop-color="#09005d"/><stop offset="1" stop-color="#1a0f91"/></linearGradient><linearGradient id="linear-gradient-3" x1="488.07" y1="884.09" x2="2029.92" y2="884.09" xlink:href="#linear-gradient"/><linearGradient id="linear-gradient-4" x1="1117.2" y1="686.15" x2="1128.69" y2="1735.46" xlink:href="#linear-gradient-2"/><linearGradient id="linear-gradient-5" x1="6350.99" y1="850.29" x2="6220.36" y2="1484.02" gradientTransform="translate(-4247.42)" gradientUnits="userSpaceOnUse"><stop offset="0" stop-color="#4042e2"/><stop offset="1" stop-color="#4f52ff"/></linearGradient><linearGradient id="linear-gradient-6" x1="6436.81" y1="1065.27" x2="6350.03" y2="1486.29" xlink:href="#linear-gradient-5"/><linearGradient id="linear-gradient-7" x1="397.42" y1="776.95" x2="788.07" y2="-69.45" gradientUnits="userSpaceOnUse"><stop offset="0" stop-color="#fe7062"/><stop offset="1" stop-color="#ff928e"/></linearGradient><linearGradient id="linear-gradient-8" x1="263.78" y1="630.85" x2="654.19" y2="-215.03" xlink:href="#linear-gradient-7"/><linearGradient id="linear-gradient-9" x1="357.27" y1="758.42" x2="747.91" y2="-87.98" xlink:href="#linear-gradient-7"/><linearGradient id="linear-gradient-10" x1="224.78" y1="612.68" x2="615.09" y2="-233" xlink:href="#linear-gradient-7"/><linearGradient id="linear-gradient-11" x1="364.56" y1="761.78" x2="755.2" y2="-84.61" xlink:href="#linear-gradient-7"/><linearGradient id="linear-gradient-12" x1="205.81" y1="603.49" x2="595.77" y2="-241.42" xlink:href="#linear-gradient-7"/><linearGradient id="linear-gradient-13" x1="472.08" y1="811.4" x2="862.72" y2="-34.99" xlink:href="#linear-gradient-7"/><linearGradient id="linear-gradient-14" x1="340.26" y1="665.83" x2="730.47" y2="-179.63" xlink:href="#linear-gradient-7"/><linearGradient id="linear-gradient-15" x1="606.5" y1="873.45" x2="997.14" y2="27.06" xlink:href="#linear-gradient-7"/><linearGradient id="linear-gradient-16" x1="474.54" y1="727.96" x2="864.77" y2="-117.54" xlink:href="#linear-gradient-7"/><linearGradient id="linear-gradient-17" x1="1128.67" y1="1114.45" x2="1519.31" y2="268.05" xlink:href="#linear-gradient-7"/><linearGradient id="linear-gradient-18" x1="996.56" y1="968.52" x2="1386.84" y2="122.92" xlink:href="#linear-gradient-7"/><linearGradient id="linear-gradient-19" x1="1266.73" y1="1178.17" x2="1657.38" y2="331.77" xlink:href="#linear-gradient-7"/><linearGradient id="linear-gradient-20" x1="1134.33" y1="1032.26" x2="1524.64" y2="186.58" xlink:href="#linear-gradient-7"/><linearGradient id="linear-gradient-21" x1="1403.74" y1="1241.4" x2="1794.38" y2="395.01" xlink:href="#linear-gradient-7"/><linearGradient id="linear-gradient-22" x1="1261.42" y1="1090.78" x2="1650.7" y2="247.34" xlink:href="#linear-gradient-7"/><linearGradient id="linear-gradient-23" x1="1507.66" y1="1289.36" x2="1898.3" y2="442.97" xlink:href="#linear-gradient-7"/><linearGradient id="linear-gradient-24" x1="1375.8" y1="1143.87" x2="1766.01" y2="298.41" xlink:href="#linear-gradient-7"/><linearGradient id="linear-gradient-25" x1="1506.06" y1="1288.63" x2="1896.7" y2="442.24" xlink:href="#linear-gradient-7"/><linearGradient id="linear-gradient-26" x1="1374.21" y1="1142.9" x2="1764.44" y2="297.4" xlink:href="#linear-gradient-7"/><linearGradient id="linear-gradient-27" x1="709.84" y1="921.14" x2="1100.48" y2="74.75" xlink:href="#linear-gradient-7"/><linearGradient id="linear-gradient-28" x1="585.61" y1="779.66" x2="974.63" y2="-63.21" xlink:href="#linear-gradient-7"/><linearGradient id="linear-gradient-29" x1="811.03" y1="967.85" x2="1201.67" y2="121.45" xlink:href="#linear-gradient-7"/><linearGradient id="linear-gradient-30" x1="681.83" y1="823.84" x2="1071.81" y2="-21.12" xlink:href="#linear-gradient-7"/><linearGradient id="linear-gradient-31" x1="805.89" y1="965.47" x2="1196.53" y2="119.08" xlink:href="#linear-gradient-7"/><linearGradient id="linear-gradient-32" x1="684.9" y1="824.94" x2="1075.21" y2="-20.74" xlink:href="#linear-gradient-7"/><linearGradient id="linear-gradient-33" x1="818.08" y1="971.1" x2="1208.72" y2="124.7" xlink:href="#linear-gradient-7"/><linearGradient id="linear-gradient-34" x1="679.64" y1="822.19" x2="1069.78" y2="-23.11" xlink:href="#linear-gradient-7"/><linearGradient id="linear-gradient-35" x1="886.75" y1="1002.79" x2="1277.4" y2="156.4" xlink:href="#linear-gradient-7"/><linearGradient id="linear-gradient-36" x1="753.27" y1="856.36" x2="1143.67" y2="10.47" xlink:href="#linear-gradient-7"/><linearGradient id="linear-gradient-37" x1="873.3" y1="996.59" x2="1263.94" y2="150.19" xlink:href="#linear-gradient-7"/><linearGradient id="linear-gradient-38" x1="731.32" y1="845.42" x2="1121.31" y2="0.44" xlink:href="#linear-gradient-7"/><linearGradient id="linear-gradient-39" x1="1504.96" y1="1288.12" x2="1895.6" y2="441.73" xlink:href="#linear-gradient-7"/><linearGradient id="linear-gradient-40" x1="1373.2" y1="1142.19" x2="1763.43" y2="296.69" xlink:href="#linear-gradient-7"/><linearGradient id="linear-gradient-41" x1="1608.3" y1="1335.81" x2="1998.94" y2="489.42" xlink:href="#linear-gradient-7"/><linearGradient id="linear-gradient-42" x1="1484.87" y1="1192.6" x2="1873.89" y2="349.73" xlink:href="#linear-gradient-7"/><linearGradient id="linear-gradient-43" x1="1709.49" y1="1382.52" x2="2100.13" y2="536.13" xlink:href="#linear-gradient-7"/><linearGradient id="linear-gradient-44" x1="1580.62" y1="1237.8" x2="1970.6" y2="392.85" xlink:href="#linear-gradient-7"/><linearGradient id="linear-gradient-45" x1="1704.35" y1="1380.15" x2="2094.99" y2="533.75" xlink:href="#linear-gradient-7"/><linearGradient id="linear-gradient-46" x1="1583.52" y1="1239.27" x2="1973.83" y2="393.59" xlink:href="#linear-gradient-7"/><linearGradient id="linear-gradient-47" x1="1716.53" y1="1385.77" x2="2107.18" y2="539.38" xlink:href="#linear-gradient-7"/><linearGradient id="linear-gradient-48" x1="1578.35" y1="1236.32" x2="1968.48" y2="391.03" xlink:href="#linear-gradient-7"/><linearGradient id="linear-gradient-49" x1="1785.21" y1="1417.47" x2="2175.86" y2="571.07" xlink:href="#linear-gradient-7"/><linearGradient id="linear-gradient-50" x1="1651.84" y1="1270.78" x2="2042.25" y2="424.9" xlink:href="#linear-gradient-7"/><linearGradient id="linear-gradient-51" x1="1771.76" y1="1411.26" x2="2162.4" y2="564.87" xlink:href="#linear-gradient-7"/><linearGradient id="linear-gradient-52" x1="1630.1" y1="1259.4" x2="2020.09" y2="414.42" xlink:href="#linear-gradient-7"/><linearGradient id="linear-gradient-53" x1="978.63" y1="1045.2" x2="1369.28" y2="198.81" xlink:href="#linear-gradient-7"/><linearGradient id="linear-gradient-54" x1="846.48" y1="899.11" x2="1236.77" y2="53.47" xlink:href="#linear-gradient-7"/><linearGradient id="linear-gradient-55" x1="1732.11" y1="324.85" x2="1476.47" y2="1324.17" gradientUnits="userSpaceOnUse"><stop offset="0" stop-color="#e1473d"/><stop offset="1" stop-color="#e9605a"/></linearGradient><linearGradient id="linear-gradient-56" x1="5642.83" y1="1231.97" x2="5752.57" y2="1231.97" gradientTransform="matrix(-1, 0, 0, 1, 7565.4, 0)" xlink:href="#linear-gradient"/><linearGradient id="linear-gradient-57" x1="5412.02" y1="1235.31" x2="5539.15" y2="1235.31" gradientTransform="matrix(-1, 0, 0, 1, 7565.4, 0)" xlink:href="#linear-gradient"/><linearGradient id="linear-gradient-58" x1="5499.7" y1="1097.15" x2="5678.37" y2="1097.15" gradientTransform="matrix(-1, 0, 0, 1, 7565.4, 0)" xlink:href="#linear-gradient"/><linearGradient id="linear-gradient-59" x1="5502.95" y1="1097.15" x2="5675.13" y2="1097.15" gradientTransform="matrix(-1, 0, 0, 1, 7565.4, 0)" xlink:href="#linear-gradient"/><linearGradient id="linear-gradient-60" x1="5499.7" y1="1190.22" x2="5678.37" y2="1190.22" gradientTransform="matrix(-1, 0, 0, 1, 7565.4, 0)" xlink:href="#linear-gradient"/><linearGradient id="linear-gradient-61" x1="5479.51" y1="1190.22" x2="5693.46" y2="1190.22" gradientTransform="matrix(-1, 0, 0, 1, 7565.4, 0)" xlink:href="#linear-gradient"/><linearGradient id="linear-gradient-62" x1="5499.7" y1="1283.29" x2="5678.37" y2="1283.29" gradientTransform="matrix(-1, 0, 0, 1, 7565.4, 0)" xlink:href="#linear-gradient"/><linearGradient id="linear-gradient-63" x1="5459.06" y1="1283.29" x2="5712.7" y2="1283.29" gradientTransform="matrix(-1, 0, 0, 1, 7565.4, 0)" xlink:href="#linear-gradient"/><linearGradient id="linear-gradient-64" x1="5439.68" y1="1376.36" x2="5678.37" y2="1376.36" gradientTransform="matrix(-1, 0, 0, 1, 7565.4, 0)" xlink:href="#linear-gradient"/><linearGradient id="linear-gradient-65" x1="5439.68" y1="1376.36" x2="5728.26" y2="1376.36" gradientTransform="matrix(-1, 0, 0, 1, 7565.4, 0)" xlink:href="#linear-gradient"/><linearGradient id="linear-gradient-66" x1="5517.55" y1="1082.36" x2="5554.04" y2="1082.36" gradientTransform="matrix(-1, 0, 0, 1, 7565.4, 0)" xlink:href="#linear-gradient-2"/><linearGradient id="linear-gradient-67" x1="5521.25" y1="1065.4" x2="5536.05" y2="1065.4" gradientTransform="matrix(-1, 0, 0, 1, 7565.4, 0)" gradientUnits="userSpaceOnUse"><stop offset="0" stop-color="#ff928e"/><stop offset="1" stop-color="#feb3b1"/></linearGradient><linearGradient id="linear-gradient-68" x1="5595.16" y1="1081.78" x2="5652.42" y2="1081.78" gradientTransform="matrix(-1, 0, 0, 1, 7565.4, 0)" xlink:href="#linear-gradient-2"/><linearGradient id="linear-gradient-69" x1="5596.03" y1="1058.83" x2="5610.75" y2="1058.83" xlink:href="#linear-gradient-67"/><linearGradient id="linear-gradient-70" x1="5512.06" y1="928.27" x2="5612.4" y2="928.27" gradientTransform="matrix(-1, 0, 0, 1, 7565.4, 0)" xlink:href="#linear-gradient-5"/><linearGradient id="linear-gradient-71" x1="2010.27" y1="856.41" x2="2031.07" y2="856.41" xlink:href="#linear-gradient-2"/><linearGradient id="linear-gradient-72" x1="1855.1" y1="682.7" x2="1976.47" y2="682.7" xlink:href="#linear-gradient-7"/><linearGradient id="linear-gradient-73" x1="5672.16" y1="627.85" x2="5726.87" y2="627.85" xlink:href="#linear-gradient-67"/><linearGradient id="linear-gradient-74" x1="1885.63" y1="676.99" x2="2005.86" y2="835.34" xlink:href="#linear-gradient-2"/><linearGradient id="linear-gradient-75" x1="5646.65" y1="1523.42" x2="5634.53" y2="1617.89" xlink:href="#linear-gradient-67"/><linearGradient id="linear-gradient-76" x1="5694.77" y1="1529.6" x2="5682.65" y2="1624.06" xlink:href="#linear-gradient-67"/><linearGradient id="linear-gradient-77" x1="1929.27" y1="610.65" x2="1935.66" y2="688.53" gradientTransform="matrix(1, 0, 0, 1, 0, 0)" xlink:href="#linear-gradient-67"/><linearGradient id="linear-gradient-78" x1="4397.31" y1="6241.09" x2="4346.72" y2="6308.02" gradientTransform="matrix(-0.82, -0.58, -0.58, 0.82, 9107.92, -1973.39)" xlink:href="#linear-gradient-67"/><linearGradient id="linear-gradient-79" x1="1905.23" y1="584.62" x2="1966.73" y2="698.82" gradientUnits="userSpaceOnUse"><stop offset="0" stop-color="#2b3582"/><stop offset="1" stop-color="#150e42"/></linearGradient><linearGradient id="linear-gradient-80" x1="4323.21" y1="6294.09" x2="4363.79" y2="6252.46" gradientTransform="matrix(-0.82, -0.58, -0.58, 0.82, 9107.92, -1973.39)" xlink:href="#linear-gradient-67"/><linearGradient id="linear-gradient-81" x1="894.73" y1="1417.16" x2="673.51" y2="1620.91" xlink:href="#linear-gradient-7"/><linearGradient id="linear-gradient-82" x1="-383.58" y1="1477.19" x2="-361.39" y2="1337.64" gradientTransform="matrix(1, 0, 0, -1, 954.63, 2853.58)" xlink:href="#linear-gradient-5"/><linearGradient id="linear-gradient-83" x1="-374.87" y1="1478.26" x2="-352.15" y2="1335.33" gradientTransform="matrix(1, 0, 0, -1, 954.63, 2962.18)" xlink:href="#linear-gradient-5"/><linearGradient id="linear-gradient-84" x1="-391.82" y1="1475.88" x2="-369.64" y2="1336.33" gradientTransform="matrix(-1, 0, 0, 1, 73.49, -144.63)" xlink:href="#linear-gradient-5"/><linearGradient id="linear-gradient-85" x1="-451.2" y1="1388.34" x2="-378.22" y2="1388.34" gradientTransform="matrix(-1, 0, 0, 1, 203.49, 0)" xlink:href="#linear-gradient-67"/><linearGradient id="linear-gradient-86" x1="-442.93" y1="1435.89" x2="-453.66" y2="1600.49" gradientTransform="matrix(-1, 0, 0, 1, 203.49, 0)" xlink:href="#linear-gradient-5"/><linearGradient id="linear-gradient-87" x1="845.36" y1="1217.3" x2="698.87" y2="1405.92" gradientTransform="matrix(1, 0, 0, 1, 0, 0)" xlink:href="#linear-gradient-67"/><linearGradient id="linear-gradient-88" x1="586.12" y1="1331.91" x2="640.33" y2="1218.55" xlink:href="#linear-gradient-2"/><linearGradient id="linear-gradient-89" x1="-546.52" y1="1429.14" x2="-557.25" y2="1593.74" gradientTransform="matrix(-1, 0, 0, 1, 203.49, 0)" xlink:href="#linear-gradient-5"/><linearGradient id="linear-gradient-90" x1="506.96" y1="1043.57" x2="526.67" y2="1211.13" xlink:href="#linear-gradient-2"/><linearGradient id="linear-gradient-91" x1="564.16" y1="1247.78" x2="429.17" y2="1438.78" xlink:href="#linear-gradient-7"/><linearGradient id="linear-gradient-92" x1="613.99" y1="1112.47" x2="602.5" y2="1199.91" gradientTransform="matrix(1, 0, 0, 1, 0, 0)" xlink:href="#linear-gradient-67"/><linearGradient id="linear-gradient-93" x1="-433.59" y1="1088.79" x2="-365.54" y2="1135.01" gradientTransform="matrix(-1, 0, 0, 1, 203.49, 0)" xlink:href="#linear-gradient-67"/><linearGradient id="linear-gradient-94" x1="594.28" y1="1033.29" x2="614" y2="1200.86" xlink:href="#linear-gradient-2"/><linearGradient id="linear-gradient-95" x1="-430.52" y1="1086.22" x2="-362.47" y2="1132.44" gradientTransform="matrix(-1, 0, 0, 1, 203.49, 0)" xlink:href="#linear-gradient-67"/><linearGradient id="linear-gradient-96" x1="-356.07" y1="1267.53" x2="-211.39" y2="1267.53" gradientTransform="matrix(-1, 0, 0, 1, 203.49, 0)" xlink:href="#linear-gradient-67"/><linearGradient id="linear-gradient-97" x1="-427.71" y1="1319.89" x2="-518.78" y2="1344.85" gradientTransform="matrix(-1, -0.05, -0.05, 1, 194.82, -86.8)" xlink:href="#linear-gradient-2"/><linearGradient id="linear-gradient-98" x1="-476.58" y1="1193.8" x2="-541.21" y2="1262.1" gradientTransform="matrix(-1, 0, 0, 1, 203.49, 0)" xlink:href="#linear-gradient-2"/><linearGradient id="linear-gradient-99" x1="-515.65" y1="1210.81" x2="-544.97" y2="1254.96" gradientTransform="matrix(-0.31, -0.95, -0.95, 0.31, 1740.32, 350.14)" xlink:href="#linear-gradient-5"/><linearGradient id="linear-gradient-100" x1="417.92" y1="1292.3" x2="899.65" y2="1292.3" xlink:href="#linear-gradient"/><linearGradient id="linear-gradient-101" x1="776.89" y1="1397.89" x2="871.98" y2="1397.89" xlink:href="#linear-gradient"/><linearGradient id="linear-gradient-102" x1="765.9" y1="1397.89" x2="861" y2="1397.89" xlink:href="#linear-gradient"/><linearGradient id="linear-gradient-103" x1="435.02" y1="1397.89" x2="530.11" y2="1397.89" xlink:href="#linear-gradient"/><linearGradient id="linear-gradient-104" x1="424.04" y1="1397.89" x2="519.13" y2="1397.89" xlink:href="#linear-gradient"/><linearGradient id="linear-gradient-105" x1="515.36" y1="484.58" x2="907.53" y2="484.58" xlink:href="#linear-gradient-7"/></defs><title>graph</title><g id="Illustration"><path class="cls-1" d="M2272.86,400.78c-55.31-102.7-176.75-179.92-295-156.23-70.77,14.19-141.12,61.78-209,37.89-48.91-17.22-76.52-66.06-117.64-96.7-63.28-47.17-153.11-46.62-230.23-25.48s-147.72,60-223.91,84c-129.85,40.94-274.78,36.5-401.63-12.32-55.68-21.43-107.8-51-164.49-69.87s-121-26.2-175.7-2.6-94,85.31-75,139.78c3.79,10.86,9.73,21.56,8.95,33C388,350.55,369.55,364,350.84,368s-38.21,1.41-57.4,1.88C207.35,372,130.41,447.13,130,529.51c-.34,68.31,43.71,128.34,81.36,186.38s71.5,127.69,49.07,192.55c-13.3,38.46-44.5,68.54-64.95,104-53,92-24.67,213.72,49.33,291.3S429.65,1419.29,539,1428.32s219.08-7.93,327.46-24.69,218.16-33.45,327.49-23.84l-5.88-3.05a1862.49,1862.49,0,0,0,655.2,35.54c45.68-5.66,98.11-17.84,117.42-57.84,16.3-33.77,1.66-73.36,5-110.42,4.83-53.4,46.73-97.15,92.41-128.2s97.5-54.16,138.66-90.54c80.51-71.17,107.83-181.33,119.84-285.56C2329.88,624.89,2328.17,503.47,2272.86,400.78Z" transform="translate(-130 -144.63)"/><path class="cls-2" d="M2094.37,1375.08a30.65,30.65,0,0,1-30.57,30.54H410.49a30.65,30.65,0,0,1-30.57-30.54L366.16,425c0-16.8,19.79-49.6,56.07-47.13L2038,336a77,77,0,0,1,79.06,78.8Z" transform="translate(-130 -144.63)"/><path class="cls-3" d="M2064.18,1345.77a29,29,0,0,1-28.92,28.92H450.36a29,29,0,0,1-28.92-28.92l-13-862.52c1.53-51.9,47-70.56,74.62-69.46l1548.59-41.55a54.15,54.15,0,0,1,55.55,55.41Z" transform="translate(-130 -144.63)"/><path class="cls-4" d="M438.56,933.73a2,2,0,0,1-2-1.93l-1-69.95a2,2,0,0,1,1.93-2,2,2,0,0,1,2,1.93l1,69.95a2,2,0,0,1-1.93,2Z" transform="translate(-130 -144.63)"/><path class="cls-4" d="M436,762.32a2,2,0,0,1-2-1.93l-3.93-267.9c.08-17.78,5.55-32,16.27-42.24,19.51-18.7,50.08-17.76,51.37-17.71l494.56-13.27a2,2,0,0,1,.11,3.91L497.79,436.45c-1.37,0-30.33-.94-48.66,16.62-9.92,9.5-15,22.76-15.06,39.4L438,760.34a2,2,0,0,1-1.93,2Z" transform="translate(-130 -144.63)"/><path class="cls-5" d="M491.26,1297.93c1.66-71.29,1-702.56-3-757.08S569,476.1,699.39,470,1929.69,439.54,1958,437.24c63.66-5.16,76.84,90,70.47,296.55-4.78,155.19-12.71,410.84-16.36,528.41a64.88,64.88,0,0,1-64.72,62.88c-264.69.73-1279.16,3.63-1346.7,5.65C523,1333,490.6,1326.19,491.26,1297.93Z" transform="translate(-130 -144.63)"/><path class="cls-6" d="M156.81,1256.38H2091a7.5,7.5,0,0,1,7.5,7.5v68.47a7.51,7.51,0,0,1-7.51,7.51H156.81a7.51,7.51,0,0,1-7.51-7.51v-68.47a7.51,7.51,0,0,1,7.51-7.51Z"/><path class="cls-7" d="M1987.8,1463.33c52.41,10.48,119.35-46.66,140.91-109.09,22.19-64.24-18.5-91.16-18.18-180.31.36-101.27,53-116.53,87.88-253,7.86-30.8,53.36-209-3-242.43-52.14-30.89-198.58,57.76-224.25,171.22-18.3,80.9,38.28,114.87,16.67,209.1-19,82.68-68.79,83.87-87.88,163.64C1876.68,1319.53,1919,1449.57,1987.8,1463.33Z" transform="translate(-130 -144.63)"/><path class="cls-8" d="M1991.61,1487.87c-14.13-109.11,13.43-277.44,39-399.44,27.73-132.08,59.2-239.82,59.51-240.9l4.36,1.28c-.31,1.07-31.74,108.67-59.43,240.58-25.54,121.64-53,289.42-39,397.89Z" transform="translate(-130 -144.63)"/><path class="cls-3" d="M2048.16,1451.15c-68.75-35.82-92.29-158.84-53.21-198.82,26.41-27,64.28,1.4,100.81-26.6,46.65-35.75,12.33-103.09,49-190.42C2176,961,2250.84,890.67,2294.59,905.1c45.79,15.1,69.91,127.17,30.8,194.62-25.43,43.86-64.36,46-72.81,86.81-9.8,47.33,37.55,68.92,37.8,114.81C2290.85,1383.77,2139.12,1498.54,2048.16,1451.15Z" transform="translate(-130 -144.63)"/><path class="cls-9" d="M2085.27,1482.65a2.8,2.8,0,0,1-2.52-4c91.15-187.82,117.88-405.71,118.14-407.89a2.8,2.8,0,1,1,5.56.66c-.26,2.19-27.1,221-118.66,409.67A2.8,2.8,0,0,1,2085.27,1482.65Z" transform="translate(-130 -144.63)"/><path class="cls-10" d="M2272.27,1127.17a1.34,1.34,0,0,1-1.06-2.16c28.77-36.93,60.66-92.41,49.18-147-6.84-32.52-26.08-49.48-26.27-49.64a1.34,1.34,0,1,1,1.75-2c.82.71,20.12,17.72,27.14,51.12,6.45,30.69,3.07,81.49-49.69,149.21A1.34,1.34,0,0,1,2272.27,1127.17Z" transform="translate(-130 -144.63)"/><path class="cls-10" d="M2042,1434.75a1.34,1.34,0,0,1-1.11-.58c-44.21-64.53-59.29-114.39-44.81-148.2,12.87-30.06,45.38-35.65,45.7-35.7a1.34,1.34,0,0,1,.43,2.64c-.31.05-31.41,5.44-43.69,34.15-14.07,32.91.93,81.89,44.57,145.6a1.34,1.34,0,0,1-1.1,2.1Z" transform="translate(-130 -144.63)"/><path class="cls-7" d="M517.57,539.63a2.14,2.14,0,0,0-2.14,2.14V944.44a2.14,2.14,0,0,0,4.28,0V541.77A2.14,2.14,0,0,0,517.57,539.63Z" transform="translate(-130 -144.63)"/><rect class="cls-7" x="369.49" y="468.49" width="36.16" height="274.63" rx="7.17" ry="7.17"/><path class="cls-7" d="M583.06,825.75a2.14,2.14,0,0,0-2.14,2.14v279.52a2.14,2.14,0,0,0,4.28,0V827.89A2.14,2.14,0,0,0,583.06,825.75Z" transform="translate(-130 -144.63)"/><rect class="cls-7" x="434.97" y="732.78" width="36.16" height="190.64" rx="7.17" ry="7.17"/><path class="cls-7" d="M648.54,950.47a2.14,2.14,0,0,0-2.14,2.14v283.81a2.14,2.14,0,0,0,4.28,0V952.61A2.14,2.14,0,0,0,648.54,950.47Z" transform="translate(-130 -144.63)"/><rect class="cls-7" x="500.46" y="966.92" width="36.16" height="84.92" rx="7.17" ry="7.17"/><path class="cls-7" d="M714,907.84a2.14,2.14,0,0,0-2.14,2.14v210.13a2.14,2.14,0,1,0,4.28,0V910A2.14,2.14,0,0,0,714,907.84Z" transform="translate(-130 -144.63)"/><rect class="cls-7" x="565.94" y="802.58" width="36.16" height="143.32" rx="7.17" ry="7.17"/><path class="cls-7" d="M779.5,768.08a2.14,2.14,0,0,0-2.14,2.14v219.9a2.14,2.14,0,1,0,4.28,0V770.22A2.14,2.14,0,0,0,779.5,768.08Z" transform="translate(-130 -144.63)"/><rect class="cls-7" x="631.42" y="664.55" width="36.16" height="149.98" rx="7.17" ry="7.17"/><path class="cls-7" d="M1303.3,811.51a2.14,2.14,0,0,0-2.14,2.14V1066.5a2.14,2.14,0,0,0,4.28,0V813.65A2.14,2.14,0,0,0,1303.3,811.51Z" transform="translate(-130 -144.63)"/><rect class="cls-7" x="1155.22" y="713.82" width="36.16" height="172.45" rx="7.17" ry="7.17"/><path class="cls-7" d="M1368.79,655.82a2.14,2.14,0,0,0-2.14,2.14V937.48a2.14,2.14,0,1,0,4.28,0V658A2.14,2.14,0,0,0,1368.79,655.82Z" transform="translate(-130 -144.63)"/><rect class="cls-7" x="1220.71" y="562.86" width="36.16" height="190.64" rx="7.17" ry="7.17"/><path class="cls-7" d="M1434.27,594.31a2.14,2.14,0,0,0-2.14,2.14V718.62a2.14,2.14,0,0,0,4.28,0V596.45A2.14,2.14,0,0,0,1434.27,594.31Z" transform="translate(-130 -144.63)"/><rect class="cls-7" x="1286.19" y="520.23" width="36.16" height="36.56" rx="7.17" ry="7.17"/><path class="cls-7" d="M1499.75,478.27a2.14,2.14,0,0,0-2.14,2.14V690.54a2.14,2.14,0,0,0,4.28,0V480.41A2.14,2.14,0,0,0,1499.75,478.27Z" transform="translate(-130 -144.63)"/><rect class="cls-7" x="1351.67" y="373.01" width="36.16" height="143.32" rx="7.17" ry="7.17"/><path class="cls-7" d="M1565.23,618.55a2.14,2.14,0,0,0-2.14,2.14v219.9a2.14,2.14,0,0,0,4.28,0V620.69A2.14,2.14,0,0,0,1565.23,618.55Z" transform="translate(-130 -144.63)"/><rect class="cls-7" x="1417.15" y="515.02" width="36.16" height="149.98" rx="7.17" ry="7.17"/><path class="cls-7" d="M845,766.13a2.14,2.14,0,0,0-2.14,2.14v82.1a2.14,2.14,0,1,0,4.28,0v-82.1A2.14,2.14,0,0,0,845,766.13Z" transform="translate(-130 -144.63)"/><rect class="cls-7" x="696.9" y="638.18" width="36.16" height="28.46" rx="6.58" ry="6.58"/><path class="cls-7" d="M910.47,668.39a2.14,2.14,0,0,0-2.14,2.14V815.18a2.14,2.14,0,0,0,4.28,0V670.53A2.14,2.14,0,0,0,910.47,668.39Z" transform="translate(-130 -144.63)"/><rect class="cls-7" x="764.03" y="551.53" width="32.88" height="89.7" rx="7.17" ry="7.17"/><path class="cls-7" d="M975.95,716.28a2.14,2.14,0,0,0-2.14,2.14v353.8a2.14,2.14,0,0,0,4.28,0V718.42A2.14,2.14,0,0,0,975.95,716.28Z" transform="translate(-130 -144.63)"/><rect class="cls-7" x="827.87" y="636.48" width="36.16" height="191.42" rx="7.17" ry="7.17"/><path class="cls-7" d="M1041.43,902a2.14,2.14,0,0,0-2.14,2.14v216a2.14,2.14,0,1,0,4.28,0v-216A2.14,2.14,0,0,0,1041.43,902Z" transform="translate(-130 -144.63)"/><rect class="cls-7" x="893.35" y="825.12" width="36.16" height="120.06" rx="7.17" ry="7.17"/><path class="cls-7" d="M1106.91,809.13a2.14,2.14,0,0,0-2.14,2.14v402.67a2.14,2.14,0,1,0,4.28,0V811.27A2.14,2.14,0,0,0,1106.91,809.13Z" transform="translate(-130 -144.63)"/><rect class="cls-7" x="958.83" y="737.98" width="36.16" height="274.63" rx="7.17" ry="7.17"/><path class="cls-7" d="M1172.39,1092.56a2.14,2.14,0,0,0-2.14,2.14v174.95a2.14,2.14,0,0,0,4.28,0V1094.7A2.14,2.14,0,0,0,1172.39,1092.56Z" transform="translate(-130 -144.63)"/><rect class="cls-7" x="1024.07" y="1017.52" width="36.16" height="89.9" rx="7.17" ry="7.17"/><path class="cls-7" d="M1633.2,768.08a2.14,2.14,0,0,0-2.14,2.14v219.9a2.14,2.14,0,0,0,4.28,0V770.22A2.14,2.14,0,0,0,1633.2,768.08Z" transform="translate(-130 -144.63)"/><rect class="cls-7" x="1485.12" y="664.55" width="36.16" height="149.98" rx="7.17" ry="7.17"/><path class="cls-7" d="M1698.69,766.13a2.14,2.14,0,0,0-2.14,2.14v82.1a2.14,2.14,0,1,0,4.28,0v-82.1A2.14,2.14,0,0,0,1698.69,766.13Z" transform="translate(-130 -144.63)"/><rect class="cls-7" x="1550.6" y="638.18" width="36.16" height="28.46" rx="6.58" ry="6.58"/><path class="cls-7" d="M1764.17,668.39a2.14,2.14,0,0,0-2.14,2.14V815.18a2.14,2.14,0,1,0,4.28,0V670.53A2.14,2.14,0,0,0,1764.17,668.39Z" transform="translate(-130 -144.63)"/><rect class="cls-7" x="1617.73" y="551.53" width="32.88" height="89.7" rx="7.17" ry="7.17"/><path class="cls-7" d="M1829.65,716.28a2.14,2.14,0,0,0-2.14,2.14v353.8a2.14,2.14,0,0,0,4.28,0V718.42A2.14,2.14,0,0,0,1829.65,716.28Z" transform="translate(-130 -144.63)"/><rect class="cls-7" x="1681.57" y="636.48" width="36.16" height="191.42" rx="7.17" ry="7.17"/><path class="cls-7" d="M1895.13,902a2.14,2.14,0,0,0-2.14,2.14v216a2.14,2.14,0,1,0,4.28,0v-216A2.14,2.14,0,0,0,1895.13,902Z" transform="translate(-130 -144.63)"/><rect class="cls-7" x="1747.05" y="825.12" width="36.16" height="120.06" rx="7.17" ry="7.17"/><path class="cls-7" d="M1960.61,809.13a2.14,2.14,0,0,0-2.14,2.14v402.67a2.14,2.14,0,1,0,4.28,0V811.27A2.14,2.14,0,0,0,1960.61,809.13Z" transform="translate(-130 -144.63)"/><rect class="cls-7" x="1812.53" y="737.98" width="36.16" height="274.63" rx="7.17" ry="7.17"/><path class="cls-7" d="M2026.1,1092.56a2.14,2.14,0,0,0-2.14,2.14v174.95a2.14,2.14,0,0,0,4.28,0V1094.7A2.14,2.14,0,0,0,2026.1,1092.56Z" transform="translate(-130 -144.63)"/><rect class="cls-7" x="1877.77" y="1017.52" width="36.16" height="89.9" rx="7.17" ry="7.17"/><path class="cls-7" d="M1237.88,973.12a2.14,2.14,0,0,0-2.14,2.14v263.88a2.14,2.14,0,1,0,4.28,0V975.26A2.14,2.14,0,0,0,1237.88,973.12Z" transform="translate(-130 -144.63)"/><rect class="cls-7" x="1089.8" y="877.38" width="36.16" height="179.98" rx="7.17" ry="7.17"/><path class="cls-11" d="M253.74,1348a2.73,2.73,0,0,1-2.73-2.73v-514a2.73,2.73,0,1,1,5.46,0v514A2.73,2.73,0,0,1,253.74,1348Z" transform="translate(-130 -144.63)"/><rect class="cls-12" x="100.66" y="758.97" width="46.16" height="350.6" rx="7.17" ry="7.17"/><path class="cls-13" d="M337.34,982.76A2.73,2.73,0,0,1,334.6,980V623.19a2.73,2.73,0,1,1,5.46,0V980A2.73,2.73,0,0,1,337.34,982.76Z" transform="translate(-130 -144.63)"/><rect class="cls-14" x="184.25" y="528.79" width="46.16" height="243.38" rx="7.17" ry="7.17"/><path class="cls-15" d="M420.93,823.53a2.73,2.73,0,0,1-2.73-2.73V458.48a2.73,2.73,0,1,1,5.46,0V820.8A2.73,2.73,0,0,1,420.93,823.53Z" transform="translate(-130 -144.63)"/><rect class="cls-16" x="267.85" y="364.85" width="46.16" height="108.41" rx="7.17" ry="7.17"/><path class="cls-17" d="M504.53,878a2.73,2.73,0,0,1-2.73-2.73V607a2.73,2.73,0,1,1,5.46,0V875.22A2.73,2.73,0,0,1,504.53,878Z" transform="translate(-130 -144.63)"/><rect class="cls-18" x="351.44" y="500.1" width="46.16" height="182.96" rx="7.17" ry="7.17"/><path class="cls-19" d="M588.12,1056.37a2.73,2.73,0,0,1-2.73-2.73V772.91a2.73,2.73,0,1,1,5.46,0v280.73A2.73,2.73,0,0,1,588.12,1056.37Z" transform="translate(-130 -144.63)"/><rect class="cls-20" x="435.04" y="667.8" width="46.16" height="191.47" rx="7.17" ry="7.17"/><path class="cls-21" d="M1256.82,1000.93a2.73,2.73,0,0,1-2.73-2.73V675.41a2.73,2.73,0,1,1,5.46,0V998.2A2.73,2.73,0,0,1,1256.82,1000.93Z" transform="translate(-130 -144.63)"/><rect class="cls-22" x="1103.73" y="576.22" width="46.16" height="220.15" rx="7.17" ry="7.17"/><path class="cls-23" d="M1340.41,1199.69a2.73,2.73,0,0,1-2.73-2.73V840.11a2.73,2.73,0,0,1,5.46,0V1197A2.73,2.73,0,0,1,1340.41,1199.69Z" transform="translate(-130 -144.63)"/><rect class="cls-24" x="1187.33" y="745.72" width="46.16" height="243.38" rx="7.17" ry="7.17"/><path class="cls-25" d="M1424,1278.21a2.73,2.73,0,0,1-2.73-2.73v-156a2.73,2.73,0,1,1,5.46,0v156A2.73,2.73,0,0,1,1424,1278.21Z" transform="translate(-130 -144.63)"/><rect class="cls-26" x="1270.92" y="996.84" width="46.16" height="46.67" rx="7.17" ry="7.17"/><path class="cls-27" d="M1507.6,1426.35a2.73,2.73,0,0,1-2.73-2.73V1155.36a2.73,2.73,0,1,1,5.46,0v268.25A2.73,2.73,0,0,1,1507.6,1426.35Z" transform="translate(-130 -144.63)"/><rect class="cls-28" x="1354.52" y="1048.49" width="46.16" height="182.96" rx="7.17" ry="7.17"/><path class="cls-29" d="M1591.2,1247.27a2.73,2.73,0,0,1-2.73-2.73V963.81a2.73,2.73,0,0,1,5.46,0v280.73A2.73,2.73,0,0,1,1591.2,1247.27Z" transform="translate(-130 -144.63)"/><rect class="cls-30" x="1438.11" y="858.69" width="46.16" height="191.47" rx="7.17" ry="7.17"/><path class="cls-31" d="M671.72,1058.87a2.73,2.73,0,0,1-2.73-2.73V951.33a2.73,2.73,0,1,1,5.46,0v104.81A2.73,2.73,0,0,1,671.72,1058.87Z" transform="translate(-130 -144.63)"/><rect class="cls-32" x="518.63" y="856.61" width="46.16" height="36.33" rx="7.17" ry="7.17"/><path class="cls-33" d="M755.31,1183.64a2.73,2.73,0,0,1-2.73-2.73V996.25a2.73,2.73,0,0,1,5.46,0V1180.9A2.73,2.73,0,0,1,755.31,1183.64Z" transform="translate(-130 -144.63)"/><rect class="cls-34" x="604.33" y="889.05" width="41.97" height="114.51" rx="7.17" ry="7.17"/><path class="cls-35" d="M838.91,1122.5a2.73,2.73,0,0,1-2.73-2.73V668.1a2.73,2.73,0,0,1,5.46,0v451.66A2.73,2.73,0,0,1,838.91,1122.5Z" transform="translate(-130 -144.63)"/><rect class="cls-36" x="685.82" y="650.74" width="46.16" height="244.37" rx="7.17" ry="7.17"/><path class="cls-37" d="M922.5,885.44a2.73,2.73,0,0,1-2.73-2.73V607a2.73,2.73,0,1,1,5.46,0V882.71A2.73,2.73,0,0,1,922.5,885.44Z" transform="translate(-130 -144.63)"/><rect class="cls-38" x="769.42" y="501.01" width="46.16" height="153.27" rx="7.17" ry="7.17"/><path class="cls-39" d="M1006.1,1004a2.73,2.73,0,0,1-2.73-2.73v-514a2.73,2.73,0,0,1,5.46,0v514A2.73,2.73,0,0,1,1006.1,1004Z" transform="translate(-130 -144.63)"/><rect class="cls-40" x="853.02" y="414.92" width="46.16" height="350.6" rx="7.17" ry="7.17"/><path class="cls-41" d="M1089.69,642.14a2.73,2.73,0,0,1-2.73-2.73V416.07a2.73,2.73,0,1,1,5.46,0V639.41A2.73,2.73,0,0,1,1089.69,642.14Z" transform="translate(-130 -144.63)"/><rect class="cls-42" x="936.3" y="293.9" width="46.16" height="114.77" rx="7.17" ry="7.17"/><path class="cls-43" d="M1678,1056.37a2.73,2.73,0,0,1-2.73-2.73V772.91a2.73,2.73,0,1,1,5.46,0v280.73A2.73,2.73,0,0,1,1678,1056.37Z" transform="translate(-130 -144.63)"/><rect class="cls-44" x="1524.89" y="667.8" width="46.16" height="191.47" rx="7.17" ry="7.17"/><path class="cls-45" d="M1761.56,1058.87a2.73,2.73,0,0,1-2.73-2.73V951.33a2.73,2.73,0,1,1,5.46,0v104.81A2.73,2.73,0,0,1,1761.56,1058.87Z" transform="translate(-130 -144.63)"/><rect class="cls-46" x="1608.48" y="856.61" width="46.16" height="36.33" rx="7.17" ry="7.17"/><path class="cls-47" d="M1845.16,1183.64a2.73,2.73,0,0,1-2.73-2.73V996.25a2.73,2.73,0,0,1,5.46,0V1180.9A2.73,2.73,0,0,1,1845.16,1183.64Z" transform="translate(-130 -144.63)"/><rect class="cls-48" x="1694.17" y="889.05" width="41.97" height="114.51" rx="7.17" ry="7.17"/><path class="cls-49" d="M1928.75,1122.5a2.73,2.73,0,0,1-2.73-2.73V668.1a2.73,2.73,0,0,1,5.46,0v451.66A2.73,2.73,0,0,1,1928.75,1122.5Z" transform="translate(-130 -144.63)"/><rect class="cls-50" x="1775.67" y="650.74" width="46.16" height="244.37" rx="7.17" ry="7.17"/><path class="cls-51" d="M2012.35,885.44a2.73,2.73,0,0,1-2.73-2.73V607a2.73,2.73,0,1,1,5.46,0V882.71A2.73,2.73,0,0,1,2012.35,885.44Z" transform="translate(-130 -144.63)"/><rect class="cls-52" x="1859.27" y="501.01" width="46.16" height="153.27" rx="7.17" ry="7.17"/><path class="cls-53" d="M2095.94,1004a2.73,2.73,0,0,1-2.73-2.73v-514a2.73,2.73,0,0,1,5.46,0v514A2.73,2.73,0,0,1,2095.94,1004Z" transform="translate(-130 -144.63)"/><rect class="cls-54" x="1942.86" y="414.92" width="46.16" height="350.6" rx="7.17" ry="7.17"/><path class="cls-55" d="M2179.54,642.14a2.73,2.73,0,0,1-2.73-2.73V416.07a2.73,2.73,0,1,1,5.46,0V639.41A2.73,2.73,0,0,1,2179.54,642.14Z" transform="translate(-130 -144.63)"/><rect class="cls-56" x="2026.15" y="293.9" width="46.16" height="114.77" rx="7.17" ry="7.17"/><path class="cls-57" d="M1173.29,794.62a2.73,2.73,0,0,1-2.73-2.73V455a2.73,2.73,0,0,1,5.46,0V791.89A2.73,2.73,0,0,1,1173.29,794.62Z" transform="translate(-130 -144.63)"/><rect class="cls-58" x="1020.21" y="357.8" width="46.16" height="229.76" rx="7.17" ry="7.17"/><path class="cls-59" d="M1904.19,410.15l-182.31-250.9c-4.9-6.74-20.14-6.74-25,0l-182.31,250.9c-4.16,5.73,2.5,12.24,12.52,12.24h59.11c7.6,0,13.76,3.87,13.76,8.65V700.76c0,4.78,6.16,8.65,13.76,8.65H1805c7.6,0,13.76-3.87,13.76-8.65V431c0-4.78,6.16-8.65,13.76-8.65h59.11C1901.7,422.38,1908.36,415.87,1904.19,410.15Z" transform="translate(-130 -144.63)"/><path class="cls-4" d="M1619,629.24a5.07,5.07,0,0,1,4.52-5.05,153.15,153.15,0,0,1,15.49-.77c9.44,0,15.23.91,20.21,3.86a14.9,14.9,0,0,1,8.23,13.41c0,6.09-3.55,11.78-11.27,14.62v.2c7.82,2.13,13.61,8,13.61,16.86a18.24,18.24,0,0,1-7.11,14.52c-5,4-13.3,6.19-26.91,6.19-4.87,0-9-.21-12.17-.49a5.06,5.06,0,0,1-4.59-5.06ZM1634.3,646a5.08,5.08,0,0,0,5.08,5.08h0c8.12,0,12.49-3.35,12.49-8.43s-4-7.92-11-7.92l-1.68,0a5.06,5.06,0,0,0-4.92,5.08Zm0,30.57a5.06,5.06,0,0,0,5.05,5.08h.94c7,0,13.2-2.64,13.2-9.85,0-6.9-6.19-9.65-13.91-9.65h-.2a5.08,5.08,0,0,0-5.08,5.08Z" transform="translate(-130 -144.63)"/><path class="cls-4" d="M1690.66,623.92a5.08,5.08,0,0,1,5.08,5.08v34.32c0,11.78,4.47,17.77,12.39,17.77,8.12,0,12.59-5.69,12.59-17.77V629a5.08,5.08,0,0,1,5.08-5.08h5.28a5.08,5.08,0,0,1,5.08,5.08v33.31c0,21.12-10.66,31.18-28.54,31.18-17.26,0-27.42-9.55-27.42-31.38V629a5.08,5.08,0,0,1,5.08-5.08Z" transform="translate(-130 -144.63)"/><path class="cls-4" d="M1765.4,687.29V665.62a5.08,5.08,0,0,0-.6-2.4l-17-31.82a5.08,5.08,0,0,1,4.48-7.47h5.84a5.08,5.08,0,0,1,4.67,3.09l5.69,13.36c2.13,5,3.55,8.63,5.28,13.1h.2c1.52-4.27,3.15-8.23,5.18-13.1l5.6-13.34a5.08,5.08,0,0,1,4.68-3.11h5.29a5.08,5.08,0,0,1,4.42,7.58l-17.61,31.17a5.08,5.08,0,0,0-.66,2.5v22.12a5.08,5.08,0,0,1-5.08,5.08h-5.28A5.08,5.08,0,0,1,1765.4,687.29Z" transform="translate(-130 -144.63)"/><path class="cls-60" d="M1819.09,1494.91a6.09,6.09,0,0,0,6.16-4.66l97.23-514.71c.57-3-1.72-5.92-5.12-6.43s-6.63,1.54-7.2,4.58l-97.23,514.71c-.57,3,1.72,5.92,5.12,6.43A7.07,7.07,0,0,0,1819.09,1494.91Z" transform="translate(-130 -144.63)"/><path class="cls-61" d="M2147.12,1494.91a6.88,6.88,0,0,0,1.24-.11c3.38-.61,5.57-3.55,4.89-6.58l-114.62-508c-.68-3-4-5-7.36-4.37s-5.58,3.55-4.89,6.58l114.62,508A6.13,6.13,0,0,0,2147.12,1494.91Z" transform="translate(-130 -144.63)"/><path class="cls-62" d="M1893.28,1102.74h166.16c3.45,0,6.25-2.5,6.25-5.58s-2.8-5.58-6.25-5.58H1893.28c-3.45,0-6.25,2.5-6.25,5.58S1889.83,1102.74,1893.28,1102.74Z" transform="translate(-130 -144.63)"/><path class="cls-63" d="M1896.29,1102.74h160.13a5.6,5.6,0,1,0,0-11.17H1896.29a5.6,5.6,0,1,0,0,11.17Z" transform="translate(-130 -144.63)"/><path class="cls-64" d="M1893.28,1195.81h166.16c3.45,0,6.25-2.5,6.25-5.58s-2.8-5.58-6.25-5.58H1893.28c-3.45,0-6.25,2.5-6.25,5.58S1889.83,1195.81,1893.28,1195.81Z" transform="translate(-130 -144.63)"/><path class="cls-65" d="M1878.19,1195.81h201.45c3.45,0,6.25-2.5,6.25-5.58s-2.8-5.58-6.25-5.58H1878.19c-3.45,0-6.25,2.5-6.25,5.58S1874.74,1195.81,1878.19,1195.81Z" transform="translate(-130 -144.63)"/><path class="cls-66" d="M1893.28,1288.87h166.16c3.45,0,6.25-2.5,6.25-5.58s-2.8-5.58-6.25-5.58H1893.28c-3.45,0-6.25,2.5-6.25,5.58S1889.83,1288.87,1893.28,1288.87Z" transform="translate(-130 -144.63)"/><path class="cls-67" d="M1858.95,1288.87h241.13c3.45,0,6.25-2.5,6.25-5.58s-2.8-5.58-6.25-5.58H1858.95c-3.45,0-6.25,2.5-6.25,5.58S1855.5,1288.87,1858.95,1288.87Z" transform="translate(-130 -144.63)"/><path class="cls-68" d="M1893.28,1381.94h226.19c3.45,0,6.25-2.5,6.25-5.58s-2.8-5.58-6.25-5.58H1893.28c-3.45,0-6.25,2.5-6.25,5.58S1889.83,1381.94,1893.28,1381.94Z" transform="translate(-130 -144.63)"/><path class="cls-69" d="M1843.39,1381.94h276.08c3.45,0,6.25-2.5,6.25-5.58s-2.8-5.58-6.25-5.58H1843.39c-3.45,0-6.25,2.5-6.25,5.58S1839.93,1381.94,1843.39,1381.94Z" transform="translate(-130 -144.63)"/><path class="cls-70" d="M2042.77,1069.5s4.06,6.39,5.08,24.29a2.92,2.92,0,0,1-2.9,3.09h-31.72a1.87,1.87,0,0,1-1.78-2.46c1.86-5.5,7.48-18.91,20-26.57Z" transform="translate(-130 -144.63)"/><path class="cls-71" d="M2044.14,1057.37l-1.79,15a2.83,2.83,0,0,1-2.47,2.49,25.06,25.06,0,0,1-6.71-.06,4.65,4.65,0,0,1-3.83-4.61v-14.52Z" transform="translate(-130 -144.63)"/><path class="cls-72" d="M1964.3,1067.84a44.29,44.29,0,0,1,5.94,22.39,5.6,5.6,0,0,1-5.64,5.48h-49.26a2.36,2.36,0,0,1-1.36-4.29c9.32-6.55,27.64-18.77,40.89-23.58Z" transform="translate(-130 -144.63)"/><path class="cls-73" d="M1969.37,1051.6l-3.83,18.58a3.83,3.83,0,0,1-4.53,3,13.86,13.86,0,0,1-4.33-1.81,4.4,4.4,0,0,1-2-4.49l4-22.5Z" transform="translate(-130 -144.63)"/><path class="cls-74" d="M2037.12,793.32s13.3,11.73,15.81,25.84-7.09,243.46-7.09,243.46-13.3,2.21-20.16-1.94c0,0-8.13-148.85-14.32-183.24,0,0-32.42,154.19-41.41,182,0,0-12.82,1.56-16.95-.88,0,0,8.49-199.87,19.16-235.4Z" transform="translate(-130 -144.63)"/><path class="cls-75" d="M2011.74,872.63a1.47,1.47,0,0,1-1.42-1.84l5.65-21.68a1.47,1.47,0,0,1,.63-.86l12.21-7.83a1.47,1.47,0,1,1,1.58,2.47l-11.73,7.52-5.51,21.12A1.47,1.47,0,0,1,2011.74,872.63Z" transform="translate(-130 -144.63)"/><path class="cls-76" d="M1905.83,660.8c56-4.65,70.64,6.94,70.64,6.94l-26.91,42.49s-55-1.09-94.46-31.48a96.26,96.26,0,0,0,15.79-23.57A74.16,74.16,0,0,0,1905.83,660.8Z" transform="translate(-130 -144.63)"/><path class="cls-77" d="M1818.13,578.59a1.72,1.72,0,0,1,3.27-.66l7.15,15.25a15.88,15.88,0,0,1,1.27,9.45l-2.51,8.88a15.32,15.32,0,0,0,3.12,12.19c6.57,8.21,20.55,23.2,40.46,31.47a96.26,96.26,0,0,1-15.79,23.57c-14.47-11.15-26.84-26.24-33.62-46.68a7.49,7.49,0,0,1-5.29-7.45Z" transform="translate(-130 -144.63)"/><path class="cls-78" d="M1887.4,685.43c19.72-21.24,57.27-30.84,79-34.78a19.94,19.94,0,0,1,22.29,12.65c9.78,26.3,36.4,94.73,41.55,106.49,4.23,9.65,8.65,19.07,11.46,25a7.07,7.07,0,0,1-3.3,9.42c-18.29,8.82-51.21,18.79-64.55,22.68a4.58,4.58,0,0,1-5.86-4.41,14.3,14.3,0,0,0-2-7.36l-50.54-84.22c-31.5,34.93-59.09,38.12-80.28,30.48a159.39,159.39,0,0,0,7-33.1C1873.46,722.89,1887.4,685.43,1887.4,685.43Z" transform="translate(-130 -144.63)"/><path class="cls-79" d="M1790.41,722.39l5.65-7.53c18.29,12.56,33.58,15.54,46.1,13.39a159.39,159.39,0,0,1-7,33.1C1807.23,751.28,1790.41,722.39,1790.41,722.39Z" transform="translate(-130 -144.63)"/><path class="cls-80" d="M1794.39,722.52l-31.83,1.24-29.31-16.37c4.21-2.64,28,2.75,28,2.75s24.87-3.76,31.6-3.77c5.59,0,4.79,8,4.36,10.76-.09.56-.16.89-.16.89Z" transform="translate(-130 -144.63)"/><path class="cls-81" d="M1936.5,611.63l16.79,41S1934,666,1918.48,664.7l-8.38-36.85Z" transform="translate(-130 -144.63)"/><path class="cls-82" d="M1908.14,583.69c-.38.54-12.15,43-12.15,43l24.41,6.2,17.14-38.63S1914.57,574.57,1908.14,583.69Z" transform="translate(-130 -144.63)"/><path class="cls-83" d="M1928.34,600.18l-7.43,21a3.08,3.08,0,0,1-.39.75c-1,1.43-4.84,6.11-9.38,1.9-4.12-3.82-7.94-7.24-11.47-7.87a3.11,3.11,0,0,0-3.55,2.24,134.7,134.7,0,0,0-4.1,20.51,3.11,3.11,0,0,0,2.53,3.35c4.77.91,14.88,2.53,23.32,1.94a3.12,3.12,0,0,0,2.63-1.81c2.33-5.08,9.45-20.5,12.1-24.49,2.49-3.74,8.59-3.64,11.14-3.41a3.06,3.06,0,0,0,2.3-.75c2.24-2,6.5-7,.51-13a3.12,3.12,0,0,1,.07-4.49c2.57-2.42,5.32-6.71,1-12s-10.11-4.55-13.63-3.26a3.12,3.12,0,0,1-3.75-1.39,2.47,2.47,0,0,0-2.54-1.19,3.07,3.07,0,0,1-3.28-3.15c.06-3.46-1.18-7.84-7.19-9.71-10.66-3.32-17.31,7-18,14.67s11.11,10.63,18,10.11c5.26-.39,9.17,4.82,10.74,7.34A3.09,3.09,0,0,1,1928.34,600.18Z" transform="translate(-130 -144.63)"/><path class="cls-84" d="M1929.82,625.37s1.72-13.35,7.27-14,11,3.91,5.44,11.4C1935.66,632.09,1929.82,625.37,1929.82,625.37Z" transform="translate(-130 -144.63)"/><path class="cls-85" d="M1252.93,1448.75H832.49c-13.41,0-24.28-8-24.28-17.93V1130.91c0-9.89,10.83-17.91,24.21-17.93l423.8-.84c13.48,0,24.41,8.07,24.34,18l-3.36,300.75C1277.13,1440.78,1266.28,1448.75,1252.93,1448.75Z" transform="translate(-130 -144.63)"/><rect class="cls-86" x="729.01" y="1006.89" width="130.99" height="61.13" rx="7.25" ry="7.25"/><rect class="cls-86" x="884.45" y="1020.87" width="228.79" height="29.69" rx="5.25" ry="5.25"/><g class="cls-87"><path class="cls-4" d="M1035.41,1307.63v-3.88a2.93,2.93,0,0,1,1-2.17l3.77-3.41c8-7.15,11.88-11.26,12-15.54,0-3-1.8-5.35-6-5.35a13.27,13.27,0,0,0-7.83,3l-1.53-3.87a2.92,2.92,0,0,1,1.29-3.65,21,21,0,0,1,9.81-2.39c8.28,0,12.84,4.84,12.84,11.49,0,6.14-4.45,11-9.74,15.76l-3.38,2.82v.11h10.87a2.93,2.93,0,0,1,2.93,2.93v1.18a2.93,2.93,0,0,1-2.93,2.93Z" transform="translate(-130 -144.63)"/><path class="cls-4" d="M1081.82,1304.7v-2.87a2.93,2.93,0,0,0-2.93-2.93H1065.6v-4.74a2.93,2.93,0,0,1,.44-1.55l12.55-20.21a2.93,2.93,0,0,1,2.49-1.38H1087a2.93,2.93,0,0,1,2.93,2.93v18.53h4.39v6.42h-4.39v5.8a2.93,2.93,0,0,1-2.93,2.93h-2.25A2.93,2.93,0,0,1,1081.82,1304.7Zm-2.93-12.22a2.93,2.93,0,0,0,2.93-2.93v-5.18c0-2.2.11-4.45.28-6.81h-.22c-1.17,2.33-2.11,4.44-3.33,6.71l-.11.19-4.84,7.9v.11Z" transform="translate(-130 -144.63)"/><path class="cls-4" d="M1097.94,1307.63v-3.88a2.93,2.93,0,0,1,1-2.17l3.77-3.41c8-7.15,11.88-11.26,12-15.54,0-3-1.8-5.35-6-5.35a13.27,13.27,0,0,0-7.83,3l-1.53-3.87a2.92,2.92,0,0,1,1.29-3.65,21,21,0,0,1,9.81-2.39c8.28,0,12.84,4.84,12.84,11.49,0,6.14-4.45,11-9.74,15.76l-3.38,2.82v.11H1121a2.93,2.93,0,0,1,2.93,2.93v1.18a2.93,2.93,0,0,1-2.93,2.93Z" transform="translate(-130 -144.63)"/><path class="cls-4" d="M1140.13,1278.63H1140l-7,3.32-.91-4.13a2.93,2.93,0,0,1,1.63-3.28l7-3.24a2.93,2.93,0,0,1,1.23-.27h3.52a2.93,2.93,0,0,1,2.93,2.93v30.74a2.93,2.93,0,0,1-2.93,2.93h-2.42a2.93,2.93,0,0,1-2.93-2.93Z" transform="translate(-130 -144.63)"/><path class="cls-4" d="M1160.93,1303.07a5,5,0,0,1,5.07-5.24,5.21,5.21,0,1,1-5.07,5.24Z" transform="translate(-130 -144.63)"/><path class="cls-4" d="M1199.56,1275.14a2.93,2.93,0,0,1-2.93,2.93h-11.26l-.79,5.63a15.9,15.9,0,0,1,2.37-.11,16.75,16.75,0,0,1,9.63,2.65c2.76,1.86,4.45,4.9,4.45,9.18,0,6.81-5.86,12.84-15.71,12.84a26.63,26.63,0,0,1-7.73-1.1,2.88,2.88,0,0,1-1.88-3.44l.94-4a21,21,0,0,0,8.28,1.8c3.55,0,7.32-1.69,7.32-5.57s-3-6.08-10.3-6.08a31.66,31.66,0,0,0-5,.34l2.1-16.64A2.93,2.93,0,0,1,1182,1271h14.65a2.93,2.93,0,0,1,2.93,2.93Z" transform="translate(-130 -144.63)"/><path class="cls-4" d="M1221.54,1304.7v-2.87a2.93,2.93,0,0,0-2.93-2.93h-13.29v-4.74a2.93,2.93,0,0,1,.44-1.55l12.55-20.21a2.93,2.93,0,0,1,2.49-1.38h5.92a2.93,2.93,0,0,1,2.93,2.93v18.53H1234v6.42h-4.39v5.8a2.93,2.93,0,0,1-2.93,2.93h-2.25A2.93,2.93,0,0,1,1221.54,1304.7Zm-2.93-12.22a2.93,2.93,0,0,0,2.93-2.93v-5.18c0-2.2.11-4.45.28-6.81h-.22c-1.17,2.33-2.11,4.44-3.33,6.71l-.11.19-4.84,7.9v.11Z" transform="translate(-130 -144.63)"/><path class="cls-4" d="M1125.14,1357.61v5.69h-14.75v-5.69Z" transform="translate(-130 -144.63)"/><path class="cls-4" d="M1144.36,1372.31v-2.87a2.93,2.93,0,0,0-2.93-2.93h-13.29v-4.74a2.93,2.93,0,0,1,.44-1.55l12.55-20.21a2.93,2.93,0,0,1,2.49-1.38h5.92a2.93,2.93,0,0,1,2.93,2.93v18.53h4.39v6.42h-4.39v5.8a2.93,2.93,0,0,1-2.93,2.93h-2.25A2.93,2.93,0,0,1,1144.36,1372.31Zm-2.93-12.22a2.93,2.93,0,0,0,2.93-2.93V1352c0-2.2.11-4.45.28-6.81h-.22c-1.17,2.33-2.11,4.44-3.33,6.71l-.11.19-4.84,7.9v.11Z" transform="translate(-130 -144.63)"/><path class="cls-4" d="M1160.93,1370.68a5,5,0,0,1,5.07-5.24,5.21,5.21,0,1,1-5.07,5.24Z" transform="translate(-130 -144.63)"/><path class="cls-4" d="M1186,1346.24h-.11l-7,3.32-.9-4.13a2.93,2.93,0,0,1,1.63-3.28l7-3.24a2.93,2.93,0,0,1,1.24-.27h3.52a2.93,2.93,0,0,1,2.93,2.93v30.74a2.93,2.93,0,0,1-2.93,2.93H1189a2.93,2.93,0,0,1-2.93-2.93Z" transform="translate(-130 -144.63)"/><path class="cls-4" d="M1232.63,1338.64v4.73a2.93,2.93,0,0,1-.29,1.28l-14,28.94a2.93,2.93,0,0,1-2.64,1.65h-2.44a2.93,2.93,0,0,1-2.61-4.26l12.91-25.18v-.11h-13.85a2.93,2.93,0,0,1-2.93-2.93v-1.18a2.93,2.93,0,0,1,2.93-2.93Z" transform="translate(-130 -144.63)"/></g><g class="cls-87"><rect class="cls-4" x="764.37" y="1131.03" width="23.67" height="72.36"/><polygon class="cls-4" points="736.08 1156.24 776.21 1196.39 816.34 1156.24 816.34 1190.32 776.21 1230.44 736.08 1190.32 736.08 1156.24"/></g><rect class="cls-88" x="573.93" y="1371.29" width="10.26" height="111" transform="translate(1028.12 2708.94) rotate(180)"/><path class="cls-89" d="M534.11,1477.75H624a0,0,0,0,1,0,0v3.31a3.37,3.37,0,0,1-3.37,3.37H537.48a3.37,3.37,0,0,1-3.37-3.37v-3.31A0,0,0,0,1,534.11,1477.75Z" transform="translate(1028.12 2817.55) rotate(180)"/><rect class="cls-90" x="390.77" y="1201.78" width="113.03" height="32.06" rx="11.04" ry="11.04"/><path class="cls-91" d="M654.84,1297.27s15.25,2.36,32.4,13.83a8.55,8.55,0,0,1,3.77,8.17c-2.05,16.27-10.5,68.91-38.34,120.33a12.94,12.94,0,0,0-1.24,8.88l4.84,22.51,9,8.41h-23.1l-15.38-41.63,6.58-2.08A12.45,12.45,0,0,0,642,1424l.77-44.66c-.66-19.9,12.2-33.62,12.2-33.62l-36.9-1.79Z" transform="translate(-130 -144.63)"/><path class="cls-92" d="M674.26,1483.46c2.1,2.75-22.65,6.39-35.15.36,0,0-17.33-30.16-17.33-45.69,0,0,1.38-3.17,11.55-2.45,0,0,5.82,35.71,12,39.71s17.19.4,17.19.4S671.16,1479.4,674.26,1483.46Z" transform="translate(-130 -144.63)"/><path class="cls-93" d="M622.76,1346.41c.2-.34,39.73-4.75,39.73-4.75s-1.29,12,2.75,28.57,62.08,88.23,62.08,88.23l-6.09,19.29c18.82,6.55,37.32,7.6,55.54,3.34l-37.72-22.63s-35.3-120.28-56.92-141.74L642.52,1303Z" transform="translate(-130 -144.63)"/><path class="cls-94" d="M534.11,1276.42s-22.78,33.88-24.64,49.33,6.24,21.73,30.14,22.77,87.69,1,87.69,1L681.74,1303s-39.68-14.16-50-18.16S534.11,1276.42,534.11,1276.42Z" transform="translate(-130 -144.63)"/><path class="cls-95" d="M723.54,1471.25s-6.55,6.35-2.13,13.41c0,0,51.9,9.2,66,5,0,0-2.93-6.68-18.79-14.28l1.17.9a1.9,1.9,0,0,1-1.25,3.4C758.07,1479.11,736.43,1477.19,723.54,1471.25Z" transform="translate(-130 -144.63)"/><path class="cls-96" d="M623.4,1104c10.81-11.53,15.17-21.2,13-32.58-3.2-16.73-30.86-31.17-55.39-19.64-25.61,12-18.34,44.32-45.1,57.76-20.91,10.5-34.36-4.67-59.56-.33-41.81,7.2-82.47,62.33-75.62,104,11.2,68.08,149.62,101.51,188,63.42C622.74,1242.81,572.62,1158.13,623.4,1104Z" transform="translate(-130 -144.63)"/><path class="cls-97" d="M595.7,1271.94s26.52-25.25,39.58-42a35.49,35.49,0,0,0,6-31.94c-6-20.08-16.55-40.88-17.52-44.12-1.48-5-31.22-4.76-31.22-4.76s-58.52,38-81.51,102.31l25.82,8s15.28-25.63,30.38-41.93c0,0-26.12,34.51-27,48.64Z" transform="translate(-130 -144.63)"/><path class="cls-98" d="M627.37,1126.17c-.31,1-8.07,26.76-8.68,27.3s-17,1.42-24.75-3.86L607,1122.16Z" transform="translate(-130 -144.63)"/><path class="cls-99" d="M614.62,1072.13s14,5.92,23.54,26.17,2.41,29.6-6.52,30.88-22.3,1.09-36.44-12S596.4,1065.11,614.62,1072.13Z" transform="translate(-130 -144.63)"/><path class="cls-100" d="M604.7,1106.37s-10.57-29.62,15.69-30l6.18,4.32s9.64-16.42-6.18-24.26-39.42-.86-46.15,20.45-2.79,35.07,8.41,45.26,15.81-1.37,15.81-1.37-6.1-9.54-3.62-14.64,8.21,1.06,8.21,1.06Z" transform="translate(-130 -144.63)"/><path class="cls-101" d="M602.76,1113.1s-5.35-15.26-12.48-9.18,5.8,14.1,10.86,16.69Z" transform="translate(-130 -144.63)"/><path class="cls-102" d="M649.74,1273.82,630.25,1255l-27,11.39s-26.83,4.16-42.19,0l-15.36-4.16-34.7-10.8-5.45,15.4a9.27,9.27,0,0,0,3.39,10.66,61.24,61.24,0,0,0,8.76,5.46c4.57,2,112.66-1.38,112.66-1.38Z" transform="translate(-130 -144.63)"/><path class="cls-103" d="M576,1282.67h.26l113-.12a5.06,5.06,0,1,0,0-10.12l-113,.12a5.06,5.06,0,0,0-.25,10.11Z" transform="translate(-130 -144.63)"/><path class="cls-104" d="M790.9,1180H696.77a17.94,17.94,0,0,0-16.23,10.29L637,1282.61H754a10.9,10.9,0,0,0,10.14-6.9l33.75-85.39A7.52,7.52,0,0,0,790.9,1180Z" transform="translate(-130 -144.63)"/><ellipse class="cls-105" cx="731.64" cy="1229.63" rx="12.06" ry="7.42" transform="translate(-793.01 1404.72) rotate(-72.16)"/><path class="cls-106" d="M418,1286.8a4.17,4.17,0,0,1,1-3.61,4.79,4.79,0,0,1,3.6-1.59h471.7a5.46,5.46,0,0,1,4.52,2.32,4.76,4.76,0,0,1,.35,4.82L894,1299.11a7.2,7.2,0,0,1-6.5,3.9H425.82a5.34,5.34,0,0,1-5.32-4.11Z" transform="translate(-130 -144.63)"/><path class="cls-107" d="M867.84,1505.37a4.05,4.05,0,0,0,1.63-.35,4.27,4.27,0,0,0,2.17-5.56L784.83,1293a4.11,4.11,0,0,0-5.44-2.22,4.27,4.27,0,0,0-2.17,5.56L864,1502.81A4.14,4.14,0,0,0,867.84,1505.37Z" transform="translate(-130 -144.63)"/><path class="cls-108" d="M770,1505.37a4.14,4.14,0,0,0,3.8-2.56l86.82-206.49a4.27,4.27,0,0,0-2.17-5.56,4.1,4.1,0,0,0-5.44,2.22l-86.82,206.49a4.27,4.27,0,0,0,2.17,5.56A4.05,4.05,0,0,0,770,1505.37Z" transform="translate(-130 -144.63)"/><path class="cls-109" d="M526,1505.37a4.05,4.05,0,0,0,1.63-.35,4.27,4.27,0,0,0,2.17-5.56L443,1293a4.11,4.11,0,0,0-5.44-2.22,4.27,4.27,0,0,0-2.17,5.56l86.82,206.49A4.14,4.14,0,0,0,526,1505.37Z" transform="translate(-130 -144.63)"/><path class="cls-110" d="M428.17,1505.37a4.14,4.14,0,0,0,3.8-2.56l86.82-206.49a4.27,4.27,0,0,0-2.17-5.56,4.1,4.1,0,0,0-5.44,2.22l-86.82,206.49a4.27,4.27,0,0,0,2.17,5.56A4,4,0,0,0,428.17,1505.37Z" transform="translate(-130 -144.63)"/><path class="cls-111" d="M906.27,506.23,724,757.13c-4.9,6.74-20.14,6.74-25,0L516.62,506.23c-4.16-5.73,2.5-12.24,12.52-12.24h59.11c7.6,0,13.76-3.87,13.76-8.65V215.62c0-4.78,6.16-8.65,13.76-8.65H807.13c7.6,0,13.76,3.87,13.76,8.65V485.35c0,4.78,6.16,8.65,13.76,8.65h59.11C903.78,494,910.44,500.5,906.27,506.23Z" transform="translate(-130 -144.63)"/><path class="cls-4" d="M621.56,284.69a2.64,2.64,0,0,1,3.6-1.86,32.66,32.66,0,0,0,12.44,2.68c6.33,0,9.68-2.8,9.68-7.05,0-4.06-2.9-6.38-10.23-9.18-10.13-3.77-16.74-9.76-16.74-19.23,0-11.11,8.69-19.62,23.07-19.62a36.57,36.57,0,0,1,13.43,2.36,2.64,2.64,0,0,1,1.57,3.13l-1.71,6.62a2.65,2.65,0,0,1-3.5,1.84,27.51,27.51,0,0,0-10.05-1.87c-6,0-8.87,2.9-8.87,6.28,0,4.16,3.44,6,11.31,9.18,10.77,4.25,15.84,10.24,15.84,19.43,0,10.92-7.87,20.2-24.61,20.2a40.79,40.79,0,0,1-15.35-3,2.63,2.63,0,0,1-1.47-3Z" transform="translate(-130 -144.63)"/><path class="cls-4" d="M704.35,269.09H687.23a2.66,2.66,0,0,0-2.66,2.66v10.14a2.66,2.66,0,0,0,2.66,2.66H707a2.66,2.66,0,0,1,2.66,2.66V294a2.66,2.66,0,0,1-2.66,2.66H673.39a2.66,2.66,0,0,1-2.66-2.66V234.15a2.66,2.66,0,0,1,2.66-2.66h32.32a2.66,2.66,0,0,1,2.66,2.66v6.76a2.66,2.66,0,0,1-2.66,2.66H687.23a2.66,2.66,0,0,0-2.66,2.66v8.21a2.66,2.66,0,0,0,2.66,2.66h17.12a2.66,2.66,0,0,1,2.66,2.66v6.67A2.66,2.66,0,0,1,704.35,269.09Z" transform="translate(-130 -144.63)"/><path class="cls-4" d="M721.71,231.5h8.53a2.66,2.66,0,0,1,2.66,2.66v50.11h21.59a2.66,2.66,0,0,1,2.66,2.66V294a2.66,2.66,0,0,1-2.66,2.66H721.71a2.66,2.66,0,0,1-2.66-2.66V234.15A2.66,2.66,0,0,1,721.71,231.5Z" transform="translate(-130 -144.63)"/><path class="cls-4" d="M768,231.5h8.53a2.66,2.66,0,0,1,2.66,2.66v50.11h21.59a2.66,2.66,0,0,1,2.66,2.66V294a2.66,2.66,0,0,1-2.66,2.66H768A2.66,2.66,0,0,1,765.3,294V234.15A2.66,2.66,0,0,1,768,231.5Z" transform="translate(-130 -144.63)"/></g></svg>