<svg id="Layer_2" data-name="Layer 2" xmlns="http://www.w3.org/2000/svg" viewBox="0 0 373.24 502.32"><defs><style>.cls-1{fill:#231f20;}</style></defs><title>logoRobin</title><path class="cls-1" d="M322.26,605.49h-16.6s34.64-123.42,45.47-158.06L336,353.83,421.86,236s88.77-18.76,126.3-19.49C548.16,216.48,397.32,387.37,322.26,605.49Z" transform="translate(-305.66 -103.17)"/><polygon class="cls-1" points="56.72 457 72.2 424.89 156.52 393.56 150.33 411.35 56.72 457"/><path class="cls-1" d="M388,502.19S480.64,316.81,567,231.56l8,127s-48.63,66.37-58.93,99.55Z" transform="translate(-305.66 -103.17)"/><path class="cls-1" d="M593.36,320.24v-123l-18.31-12L448.6,207l81.82-84.11s69.8-38.33,127.59-8c0,0,28.61,25.75,18.88,111Z" transform="translate(-305.66 -103.17)"/></svg>