<svg xmlns="http://www.w3.org/2000/svg" viewBox="0 0 2554.07 2169.05"><defs><style>.cls-1{isolation:isolate;}.cls-2{fill:#90c3e0;}.cls-3{fill:#cf523e;}.cls-19,.cls-4{fill:#ff8470;}.cls-5{fill:#8db4c9;}.cls-6{fill:#2e3245;}.cls-21,.cls-7{fill:#fff;}.cls-16,.cls-17,.cls-23,.cls-26,.cls-49,.cls-56,.cls-60,.cls-63,.cls-66,.cls-68,.cls-8{fill:none;stroke-linecap:round;stroke-linejoin:round;}.cls-17,.cls-23,.cls-8{stroke:#fff;}.cls-8{stroke-width:8.31px;}.cls-9{fill:#5f8eab;}.cls-10{fill:#78a6bf;}.cls-11{fill:#5a87a1;}.cls-12{fill:#57829c;}.cls-13{fill:#709bb3;}.cls-14{fill:#b1daf0;}.cls-15{fill:#5d879e;}.cls-16,.cls-63,.cls-68{stroke:#2e3245;}.cls-16{stroke-width:5.96px;}.cls-17{stroke-width:9.11px;}.cls-18{fill:#86b9d4;}.cls-19,.cls-20,.cls-21,.cls-64,.cls-65{fill-rule:evenodd;}.cls-20,.cls-61{fill:#539bc2;}.cls-22{fill:#81bbdb;}.cls-23{stroke-width:5.77px;}.cls-24{fill:#3e84ab;}.cls-25,.cls-65{fill:#cde5f2;}.cls-26{stroke:#87bbd9;}.cls-26,.cls-63{stroke-width:5.56px;}.cls-27{fill:#40afed;}.cls-28{fill:#6da9cf;}.cls-29{fill:#99cae3;}.cls-30{fill:#97c8e0;}.cls-31{fill:#c3e6fa;}.cls-32{fill:#b0d7ed;}.cls-33{fill:#7ba2b8;}.cls-34{fill:#6ba2c2;}.cls-35{fill:#88b9d4;}.cls-36{fill:#638d94;opacity:0.4;}.cls-36,.cls-50{mix-blend-mode:multiply;}.cls-37{fill:#3f8099;}.cls-38{fill:#588da3;}.cls-39{fill:#244957;}.cls-40{fill:#69a8c2;}.cls-41{fill:#d66e62;}.cls-42{fill:#324554;}.cls-43{fill:#4e6c85;}.cls-44{fill:#9dc0d4;}.cls-45{fill:#cf9161;}.cls-46{fill:#f0b68b;}.cls-47{fill:#f2c97b;}.cls-48{fill:#ffd4b3;}.cls-49{stroke:#ffd4b3;stroke-width:3.26px;}.cls-50{opacity:0.29;}.cls-51{fill:#bf865a;}.cls-52{fill:#d1905e;}.cls-53{fill:#f5ba8c;}.cls-54{fill:#4a8aad;}.cls-55{fill:#d96350;}.cls-56{stroke:#c95c4a;stroke-width:2.78px;}.cls-57{fill:#447e9e;}.cls-58{fill:#36647d;}.cls-59{fill:#169e6f;}.cls-60{stroke:#2f586e;stroke-width:3px;}.cls-62{fill:#2f7094;}.cls-64{fill:#2277a6;}.cls-66{stroke:#4a476b;stroke-width:5.72px;}.cls-67{fill:#4d4a70;}.cls-68{stroke-width:4.21px;}</style></defs><title>stockImage</title><g class="cls-1"><g id="image"><path class="cls-2" d="M3153.67,1260.25c-222.47-190.63-243.5-462.66-207.95-679C2966.6,454.17,3030,333.6,3181,276.9c393.23-147.68,507,446.82,781.11,422.19s558.54-12.75,610.29,442.41-382.05,738.06-684.9,522.38C3693.34,1525.59,3343.34,1422.78,3153.67,1260.25Z" transform="translate(-2169.05 -235.23)"/><polygon class="cls-3" points="1639.57 352.83 1421.62 0 1397.41 16.08 1210 276.87 1316.15 300.8 1316.15 1462.48 1560.73 1525.87 1560.73 355.94 1613.85 388.26 1639.57 352.83"/><polygon class="cls-4" points="1513.56 1535.58 1268.98 1472.19 1268.98 175.84 1513.56 239.23 1513.56 1535.58"/><path class="cls-2" d="M2952.19,1327.21h0c-18-23.22-5.39-52.27,20-46h0c28.77,7.05,52-11.65,51.92-41.77l0-15.5c-.09-30.12-23.48-60.26-52.25-67.31h0c-25.41-6.23-38.23-41.52-20.32-55.93h0c20.28-16.31,20.17-50.84-.23-77.13l-10.5-13.53c-20.41-26.29-53.38-34.37-73.66-18.06h0c-17.91,14.41-48.68-6.45-48.76-33.06h0c-.09-30.12-23.48-60.26-52.25-67.31l-14.8-3.63c-28.77-7.05-52,11.65-51.92,41.77h0c.08,26.61-30.6,32.4-48.63,9.18h0c-20.4-26.29-53.38-34.37-73.66-18.06l-10.44,8.4c-20.28,16.31-20.17,50.84.23,77.13,18,23.22,5.4,52.27-20,46h0c-28.77-7.05-52,11.65-51.92,41.77l0,15.5c.09,30.12,23.48,60.26,52.25,67.31h0c25.41,6.23,38.23,41.52,20.32,55.93h0c-20.28,16.31-20.17,50.84.23,77.13l10.5,13.53c20.4,26.29,53.38,34.37,73.66,18.06,17.91-14.41,48.68,6.45,48.76,33.06.09,30.12,23.48,60.25,52.25,67.31l14.81,3.63c28.77,7.05,52-11.65,51.92-41.77h0c-.08-26.61,30.6-32.4,48.63-9.18h0c20.41,26.29,53.38,34.37,73.66,18.06l10.43-8.39C2972.69,1388,2972.59,1353.5,2952.19,1327.21Zm-283.77-87.14c-50.64-65.24-50.9-150.94-.57-191.42s132.17-20.41,182.81,44.83,50.9,150.94.57,191.42S2719.06,1305.31,2668.42,1240.07Z" transform="translate(-2169.05 -235.23)"/><path class="cls-5" d="M2170.63,2191.64c-5.26,14.69,3.1,30.74,18.67,35.84l.56.17h0l29,9.51a22.18,22.18,0,0,0,3.15,1.26l.56.17h0l10.71,3.51h0L2544.78,2344a8.21,8.21,0,0,0,2.4,1.07l40.14-7.15h0l35.49-4.12-35.1-25.08h0l-26.63-20.12a12.84,12.84,0,0,0-4.4.77l.23-1.43-348-113.47h0l-.55-.19C2192.77,2169.17,2175.88,2176.95,2170.63,2191.64Z" transform="translate(-2169.05 -235.23)"/><path class="cls-6" d="M2193.49,2208.17l.56.17h0l55.83,18.3c15.57,5.1,32.45-2.67,37.71-17.36s-3.1-30.74-18.67-35.84l-55.83-18.3h0l-.55-.19c-15.57-5.1-32.45,2.67-37.71,17.36S2177.92,2203.07,2193.49,2208.17Z" transform="translate(-2169.05 -235.23)"/><path class="cls-6" d="M2212.53,2155l348.58,113.65-5.26,32.16-339.3-110.63C2165.7,2173.28,2180.86,2147.93,2212.53,2155Z" transform="translate(-2169.05 -235.23)"/><path class="cls-6" d="M2555.85,2300.78c-6.83,12.29-.9,10-14.35,22.09l-310.15-102.06c-19.19-12.46-21.34-22.33-16.15-31.09Z" transform="translate(-2169.05 -235.23)"/><path class="cls-7" d="M2542,2323.07l68-7.08-48.63-47.16C2541.63,2267,2526.86,2317.62,2542,2323.07Z" transform="translate(-2169.05 -235.23)"/><path class="cls-6" d="M2613.45,2317.76l-41.14,2.38c-7.94-7.61,3.93-29.82,11.45-29.59Z" transform="translate(-2169.05 -235.23)"/><path class="cls-8" d="M2561.25,1067.77c1.62,92.07-69.92,149.61-159.79,128.53s-164-112.8-165.66-204.87,69.92-149.61,159.79-128.53S2559.63,975.7,2561.25,1067.77Z" transform="translate(-2169.05 -235.23)"/><path class="cls-7" d="M2392,1099.33c-15.42-5.09-31-16.59-41.23-28.57l8.9-11.9c10.5,11.55,22.9,21.81,37.58,25.26,17.8,4.18,26.53-3.84,26.26-19.12-.7-39.93-67.67-47-68.52-95.1-.39-21.93,13.29-34.43,34.16-32.73l-.44-24.89,14.44,3.39.43,24.4c15.43,5.34,25.66,15.35,34.49,26.74l-10.37,9.59c-9.06-11-16.61-17.88-29.6-20.93-14.67-3.44-23.89,3.72-23.64,18,.63,35.74,67.57,41.62,68.51,94.61.41,23.41-13.73,36.29-36.53,34.14l.44,24.89-14.44-3.39Z" transform="translate(-2169.05 -235.23)"/><line class="cls-8" x1="242.24" y1="1125.22" x2="242.24" y2="1012.31"/><path class="cls-5" d="M4029.09,2034.13l-1052.57-271.8c-43.08-11.12-55.67-37.63-28.14-59.19l176.1-137.93c27.54-21.57,84.78-30,127.86-18.91l1052.57,271.8c43.08,11.12,55.67,37.63,28.14,59.19L4157,2015.22C4129.42,2036.79,4072.17,2045.25,4029.09,2034.13Z" transform="translate(-2169.05 -235.23)"/><path class="cls-9" d="M3807.51,1720.77s-7,5-7.54,5.63c-.24.31-2.67,3.25-3.78,4.4-.83.86-3.59,3.47-4.09,3.91-1.47,1.3-313.77,236.79-313.77,236.79l1.58,45.44,308-233.63a11.76,11.76,0,0,0,5.82-3.16c.5-.44.92-.89,1.4-1.34.92-.86,1.87-1.71,2.69-2.57l0,0c1.1-1.15,2.09-2.3,3-3.45.25-.31.49-.62.73-.93s.58-.71.84-1.06.38-.63.6-1q.93-1.35,1.71-2.69c.18-.31.42-.62.59-.93s.2-.49.33-.73c.4-.79.74-1.57,1.06-2.34.15-.37.37-.75.51-1.12.07-.19.09-.37.15-.56.25-.74.43-1.46.6-2.19.1-.41.26-.83.34-1.24,0-.14,0-.28,0-.42a21.05,21.05,0,0,0,.21-2.27c0-.4.11-.82.11-1.22q0-.29,0-.58Z" transform="translate(-2169.05 -235.23)"/><path class="cls-9" d="M3477,1972.4c-2.07,1.52-4.25,3-6.51,4.38-.69.43-1.39.86-2.09,1.28-2.5,1.48-5.06,2.9-7.73,4.24l-.43.23q-3.35,1.66-6.85,3.16l-1,.41c-2,.84-4,1.66-6.1,2.43l-.78.27c-2.65,1-5.35,1.85-8.07,2.68-1,.3-2,.59-3,.88q-2.37.67-4.76,1.27c-1.12.28-2.25.56-3.37.81-1.37.31-2.75.6-4.13.88-1.19.24-2.37.47-3.56.68s-2.55.43-3.82.62-2.43.36-3.64.52-2.52.29-3.77.42-2.38.24-3.56.33c-1.35.1-2.68.17-4,.23-1.11.05-2.22.1-3.32.13-1.62,0-3.21,0-4.79,0-.89,0-1.79,0-2.67-.05-2.84-.12-5.61-.35-8.31-.69-1.34-.17-2.64-.39-3.94-.61-.67-.12-1.35-.2-2-.33-2-.39-3.91-.85-5.76-1.38L3120.77,1924c-15.34-4.4-22.68,1.08-23-8.8l1.05,31.64c.34,9.88,8.21,18.21,23.55,22.61l248.26,71.19c1.85.53,3.78,1,5.76,1.38.66.13,1.34.22,2,.34,1.13.2,2.25.41,3.41.57l.52,0q4,.51,8.31.69l.55,0c.69,0,1.42,0,2.12,0,1.59,0,3.18,0,4.79,0,.37,0,.72,0,1.08,0,.74,0,1.49-.1,2.24-.13,1.33-.06,2.66-.13,4-.23.45,0,.9,0,1.35-.08.74-.06,1.48-.17,2.22-.25,1.25-.13,2.5-.26,3.76-.42.49-.06,1-.1,1.46-.16.73-.1,1.47-.25,2.2-.36,1.27-.19,2.53-.39,3.81-.62.51-.09,1-.15,1.52-.25.69-.13,1.37-.3,2.06-.44,1.37-.28,2.74-.57,4.12-.88.55-.13,1.11-.22,1.66-.35s1.14-.32,1.72-.46q2.39-.6,4.75-1.27c.63-.18,1.28-.32,1.91-.51.37-.11.74-.25,1.11-.37,2.72-.83,5.41-1.71,8.06-2.68l.64-.21.14-.05c2.06-.76,4.09-1.58,6.1-2.43l1-.41q3.5-1.5,6.86-3.16l.09,0,.33-.18c2.67-1.34,5.24-2.76,7.74-4.24.71-.42,1.4-.84,2.09-1.28,2.26-1.4,4.44-2.86,6.51-4.38.25-.18.54-.34.78-.53l.49-.37-1.58-45.44C3477.92,1971.82,3477.47,1972.1,3477,1972.4Z" transform="translate(-2169.05 -235.23)"/><path class="cls-10" d="M3783,1699.37c29.82,8.55,31.53,32.1,3.85,53.1l-308,233.63c-28.82,21.86-78.25,32.55-109.3,23.65l-248.26-71.19c-31-8.9-31.47-33.89-.92-55.25L3446.94,1655c29.35-20.52,76.49-30.06,106.32-21.51Z" transform="translate(-2169.05 -235.23)"/><polygon class="cls-11" points="1062.47 1569.89 1421.54 1667.44 1509.99 1602.6 1162.53 1501.66 1062.47 1569.89"/><polygon class="cls-12" points="1421.54 1667.44 1422.65 1696.89 1530.71 1616.45 1529.63 1588.19 1421.54 1667.44"/><path class="cls-7" d="M4120.84,1896.83c-.27,29.8-36.24,55.4-66.56,47.37L2878.62,1632.43c-21.8-5.78-39.24-26-38.95-45.21l12.88-870.76c.29-19.2,18.17-30.06,40-24.28L4128.77,1020Z" transform="translate(-2169.05 -235.23)"/><path class="cls-13" d="M4137,878.56,2930.86,570.36h0l-.11,0-2.38-.61h0l-4.22-1.07-1.64-.35q-.83-.16-1.65-.29t-1.64-.23q-.85-.1-1.69-.17t-1.68-.1q-.9,0-1.78,0h-.28c-.51,0-1,0-1.52,0l-.77.06-.63,0-.49,0c-.62.06-1.22.14-1.82.23l-.15,0h0q-1.07.17-2.11.4l-.23.06-.94.25c-.37.1-.75.18-1.11.29l-.31.11c-.5.16-1,.34-1.48.52-.26.1-.54.18-.8.28l-.17.08a28.46,28.46,0,0,0-2.79,1.32l-.19.09c-.1.06-.18.13-.28.19a26.37,26.37,0,0,0-3.29,2.18l-33.81,27.61s6.71-2,6.91-2c1-.2,2.11-.36,3.21-.47l.24,0c1.16-.1,2.34-.16,3.54-.15h.29q1.77,0,3.6.19l.36,0c1.29.14,2.6.32,3.93.58l1.63.34,1.27.31,8.86,2.27h0L4135.15,920.77C4137,921.25,4141,879.57,4137,878.56ZM2916.69,575.82h0Z" transform="translate(-2169.05 -235.23)"/><path class="cls-6" d="M4122.64,1761.63c-.67,45.26-53.73,83.29-99.42,71.26l-1145-301.53c-21.8-5.78-39.24-26-38.95-45.21l12.77-863.29c.29-19.2,17.88-33.83,39.68-28L4135.17,920.73Z" transform="translate(-2169.05 -235.23)"/><path class="cls-14" d="M4066.56,1715.94c-.92,29.09-34.9,53.28-64.29,45.77L2910.81,1482.55c-20.65-5.3-37-22.69-36.54-38.84l21-728.88c.47-16.15,17.56-26.64,38.21-21.34L4089.61,985.31Z" transform="translate(-2169.05 -235.23)"/><path class="cls-15" d="M4168.86,915.71l0-.13q-.12-.71-.26-1.42t-.32-1.41l-.05-.2-.05-.19c-.08-.33-.17-.65-.26-1s-.27-.91-.42-1.37c-.07-.21-.15-.43-.22-.64l-.1-.28-.15-.44q-.25-.68-.52-1.35t-.54-1.26l0,0v0q-.3-.67-.62-1.34t-.66-1.31l-.19-.35-.14-.25-.38-.7q-.35-.62-.72-1.23l-.58-.92-.08-.13-.09-.14q-.37-.58-.76-1.15t-.77-1.09l-.34-.46-.15-.2-.32-.42q-.43-.56-.87-1.11l-.9-1.09-.09-.1-.14-.16c-.33-.38-.66-.76-1-1.13s-.65-.68-1-1l-.65-.68-.31-.32c-.55-.55-1.12-1.07-1.7-1.6l-.55-.52-.08-.08q-1.11-1-2.27-1.92l-.34-.26-.3-.24-.81-.63q-.69-.51-1.39-1l-.54-.37-.28-.19-.51-.35-1.38-.89L4144,882l-.19-.12-.17-.1q-.74-.43-1.5-.84t-1.58-.82l0,0,0,0q-.76-.38-1.54-.74t-1.64-.72l-.2-.08-.23-.09-1.2-.48q-.81-.31-1.64-.6l-.46-.15-.15-.06h0l-1-.32-1.64-.48-8.83-2.33-41,30.4s11.58,3.09,12.12,3.26l1.63.53q.83.29,1.64.6t1.63.66l.68.3c.87.38,1.72.77,2.57,1.2h0c.85.43,1.69.88,2.52,1.35l.32.18q1.19.68,2.33,1.42l.35.23q1.12.73,2.2,1.51l.39.28q1.07.78,2.1,1.61c.35.29.69.58,1,.88s.84.71,1.25,1.07.93.86,1.38,1.3c.3.28.6.56.89.85s.49.52.74.78c.44.46.88.91,1.3,1.38l.33.38c.57.65,1.14,1.31,1.67,2l.13.17q.84,1.06,1.63,2.16l.16.22q.76,1.07,1.45,2.17l.18.28q.67,1.08,1.28,2.18l.18.33q.6,1.1,1.13,2.22l.16.34q.52,1.12,1,2.26l.13.33q.45,1.15.82,2.31l.1.31c.24.78.46,1.57.65,2.36.1.4.19.79.27,1.19s.19.94.26,1.42.15,1,.21,1.49.11,1,.15,1.5.07,1.08.08,1.63,0,.84,0,1.26l0,2.29-17,965.87,29.32-30.87c6.82-7.19,10.72-15.94,10.87-24.39l16-933.52.15-10.21q0-.63,0-1.26c0-.36,0-.71-.05-1.07,0,0,0,0,0-.06s0-.1,0-.14,0-.23,0-.35q-.06-.75-.15-1.5c0-.4-.11-.79-.17-1.19Z" transform="translate(-2169.05 -235.23)"/><circle class="cls-16" cx="1032.72" cy="139.6" r="22.24"/><circle class="cls-17" cx="200.36" cy="407.43" r="22.24"/><circle class="cls-16" cx="2200.1" cy="1453.79" r="22.24"/><path class="cls-18" d="M3605.08,2160.57c-46.89-24.6-134.4-26-195.46-3.16s-72.54,61.32-25.64,85.92,134.4,26,195.46,3.16S3652,2185.17,3605.08,2160.57Z" transform="translate(-2169.05 -235.23)"/><path class="cls-19" d="M4213.1,1222.31c-69.59-20.16-134.16,22.17-144.23,94.55s38.18,147.39,107.77,167.56,134.16-22.17,144.23-94.55S4282.68,1242.47,4213.1,1222.31ZM4184.9,1425c-38-11-64.38-52-58.88-91.55s40.78-62.67,78.8-51.66,64.38,52,58.88,91.55S4222.92,1436,4184.9,1425Z" transform="translate(-2169.05 -235.23)"/><path class="cls-20" d="M4213.1,1222.31c-1.71-.5-3.42-.92-5.12-1.34L4202,1281c.93.23,1.86.46,2.8.73,38,11,64.38,52,58.88,91.55a66.44,66.44,0,0,1-11.64,29.8l47.49,41.31c10.87-15.14,18.39-33.57,21.31-54.55C4330.93,1317.49,4282.68,1242.47,4213.1,1222.31Z" transform="translate(-2169.05 -235.23)"/><path class="cls-21" d="M4252.06,1403.11c-12.78,17.8-34.09,27.21-57.38,23.94l-.16,61.18c42.63,6,81.63-11.23,105-43.81Z" transform="translate(-2169.05 -235.23)"/><path class="cls-22" d="M3990.46,1758.39,2930.12,1487.15l3.91-137.07c.76-26.47,20.2-43.11,43.42-37.16l976.22,249.72c23.23,5.94,41.44,32.21,40.69,58.68Z" transform="translate(-2169.05 -235.23)"/><line class="cls-23" x1="834.02" y1="1125.2" x2="885.85" y2="1138.46"/><line class="cls-23" x1="830.58" y1="1245.57" x2="882.42" y2="1258.83"/><line class="cls-23" x1="832.3" y1="1185.39" x2="884.14" y2="1198.65"/><line class="cls-23" x1="1041.16" y1="1178.19" x2="1093" y2="1191.45"/><line class="cls-23" x1="1037.73" y1="1298.56" x2="1089.56" y2="1311.82"/><line class="cls-23" x1="1039.44" y1="1238.37" x2="1091.28" y2="1251.63"/><line class="cls-23" x1="1455.45" y1="1284.17" x2="1507.28" y2="1297.43"/><line class="cls-23" x1="1452.01" y1="1404.54" x2="1503.85" y2="1417.8"/><line class="cls-23" x1="1453.73" y1="1344.35" x2="1505.57" y2="1357.61"/><path class="cls-7" d="M3429.36,1470.94l-6.51-1.66.07-2.53,6.51,1.67.23-7.95,2.32.59-.23,7.95,6.51,1.66-.07,2.53-6.51-1.66-.23,7.95-2.32-.59Z" transform="translate(-2169.05 -235.23)"/><path class="cls-7" d="M3440.08,1482.75l1.56-1.82a10,10,0,0,0,5.74,4.59c2.75.7,4.77-.67,4.86-3.56.09-3.1-1.71-5.65-7.15-7l.07-2.57c4.87,1.24,6.54-.47,6.61-3.2A4.91,4.91,0,0,0,3448,1464a5.34,5.34,0,0,0-4.94,1.41l-1.51-2.52a7.28,7.28,0,0,1,6.63-1.59c4,1,6.76,4.15,6.64,8.35-.09,3.14-1.83,4.71-4.33,5.13v.17a8.6,8.6,0,0,1,4.75,7.86c-.13,4.61-3.54,6.57-7.72,5.5A12.35,12.35,0,0,1,3440.08,1482.75Z" transform="translate(-2169.05 -235.23)"/><path class="cls-7" d="M3458.36,1495.64a4.1,4.1,0,0,0,3.36-4.15,1.07,1.07,0,0,1-.36,0,2.77,2.77,0,0,1-2-2.86,1.71,1.71,0,0,1,2.25-1.81c1.54.39,2.43,2.14,2.36,4.59-.1,3.5-2,5.78-4.9,6.42Z" transform="translate(-2169.05 -235.23)"/><path class="cls-7" d="M3476.8,1488.12l-10.26-2.63.06-2.2,10.24-14.13,3.29.84-.46,16.14,3.11.8-.08,2.69-3.11-.8-.2,7.17-2.79-.71Zm.08-2.69.22-7.54c0-1.39.21-3.6.32-5l-.14,0c-.61,1.12-1.28,2.09-2,3.19l-5.58,7.52Z" transform="translate(-2169.05 -235.23)"/><path class="cls-7" d="M3484.48,1494.24l1.49-1.83a10,10,0,0,0,5.67,4.45c2.79.71,5.07-1,5.18-4.67s-1.77-6.2-4.7-7a5.06,5.06,0,0,0-3.94.59l-1.54-1.54,1.11-12.32,11.41,2.92-.08,2.89-8.83-2.26-.83,7.55a5.72,5.72,0,0,1,3.53-.16c3.9,1,7,4.34,6.85,10s-4,7.85-7.94,6.83A12.67,12.67,0,0,1,3484.48,1494.24Z" transform="translate(-2169.05 -235.23)"/><path class="cls-24" d="M3427.64,1531.12l-6.51-1.66.07-2.53,6.51,1.67.23-7.95,2.32.59-.23,7.95,6.51,1.66-.07,2.53-6.51-1.66-.23,7.95-2.32-.59Z" transform="translate(-2169.05 -235.23)"/><path class="cls-24" d="M3440.24,1543.83l5.22,1.34L3446,1526l-4.15-1.06.06-2.16a10.61,10.61,0,0,0,4.88-.68l2.25.58-.67,23.23,4.72,1.21-.08,2.77-12.88-3.29Z" transform="translate(-2169.05 -235.23)"/><path class="cls-24" d="M3456.65,1555.82a4.09,4.09,0,0,0,3.36-4.15,1.06,1.06,0,0,1-.36,0,2.77,2.77,0,0,1-2-2.86,1.72,1.72,0,0,1,2.25-1.81c1.54.39,2.42,2.14,2.36,4.58-.1,3.51-2,5.78-4.9,6.42Z" transform="translate(-2169.05 -235.23)"/><path class="cls-24" d="M3465.5,1551.07c7.09-6,11.08-9.73,11.2-13.92.09-3-1.28-5.46-4.18-6.2-1.9-.48-3.58.48-5,1.89l-1.63-2.34c2-1.88,4.05-2.95,7-2.19,4.22,1.08,6.74,4.8,6.61,9.41-.14,4.89-4.17,8.74-9.76,13.8,1.25.2,2.65.43,3.83.74l6.61,1.69-.08,2.89-14.73-3.77Z" transform="translate(-2169.05 -235.23)"/><path class="cls-24" d="M3483.73,1544.56c.25-8.72,3.14-12.71,7.71-11.53s7.16,6.55,6.91,15.28-3.14,12.87-7.68,11.7S3483.48,1553.29,3483.73,1544.56Zm11.77,3c.22-7.62-1.48-11.18-4.13-11.85s-4.56,2-4.77,9.58,1.47,11.34,4.16,12S3495.28,1555.19,3495.49,1547.57Z" transform="translate(-2169.05 -235.23)"/><path class="cls-24" d="M3425.93,1591.16l-6.51-1.66.07-2.53,6.51,1.67.23-7.95,2.32.59-.23,7.95,6.51,1.66-.07,2.53-6.51-1.66-.23,7.95-2.32-.59Z" transform="translate(-2169.05 -235.23)"/><path class="cls-24" d="M3437.11,1604.29c7.09-6,11.08-9.73,11.21-13.92.08-3-1.29-5.46-4.18-6.2-1.9-.48-3.58.48-5,1.9l-1.63-2.35c2-1.88,4-2.95,7-2.19,4.22,1.08,6.74,4.8,6.61,9.41-.14,4.89-4.17,8.74-9.76,13.8,1.26.2,2.66.43,3.84.73l6.61,1.69-.08,2.89-14.73-3.77Z" transform="translate(-2169.05 -235.23)"/><path class="cls-24" d="M3454.93,1615.87a4.09,4.09,0,0,0,3.36-4.15,1.06,1.06,0,0,1-.36,0,2.78,2.78,0,0,1-2-2.86,1.72,1.72,0,0,1,2.25-1.81c1.54.39,2.42,2.14,2.36,4.58-.1,3.51-2,5.78-4.9,6.42Z" transform="translate(-2169.05 -235.23)"/><path class="cls-24" d="M3473.37,1608.35l-10.26-2.63.06-2.2,10.24-14.13,3.29.84-.46,16.14,3.11.8-.08,2.69-3.11-.8-.21,7.17-2.79-.71Zm.08-2.69.21-7.54c0-1.39.21-3.6.32-5l-.14,0c-.61,1.12-1.28,2.09-2,3.19l-5.58,7.52Z" transform="translate(-2169.05 -235.23)"/><path class="cls-24" d="M3482,1604.61c.25-8.72,3.14-12.71,7.71-11.53s7.16,6.55,6.91,15.28-3.14,12.87-7.68,11.7S3481.76,1613.33,3482,1604.61Zm11.77,3c.22-7.62-1.48-11.18-4.13-11.85s-4.56,2-4.77,9.58,1.48,11.34,4.16,12S3493.56,1615.24,3493.78,1607.61Z" transform="translate(-2169.05 -235.23)"/><path class="cls-7" d="M3949.55,1532.66l-966.32-247.19c-26-6.64-46.32-36-45.48-65.59l11.13-389.93c.84-29.58,22.57-48.18,48.53-41.54l966.32,247.19c26,6.64,46.32,36,45.48,65.59l-11.13,389.93C3997.24,1520.7,3975.51,1539.3,3949.55,1532.66Z" transform="translate(-2169.05 -235.23)"/><path class="cls-25" d="M3992.17,1245.24c-26.65-67.44-120.65-8.41-120.65-8.41-141.53,81.67-230.08-26-339.63-74.26s-170.31,54.1-267.08,40.85-112.72-89.18-193.64-102-124.74,73.05-124.74,73.05l-1.21,42.36c-.39,13.7,9,27.29,21.05,30.36l990.2,253.3c15.57,4,28.61-7.17,29.12-24.92Z" transform="translate(-2169.05 -235.23)"/><line class="cls-26" x1="834.55" y1="644.57" x2="1797.94" y2="891.01"/><line class="cls-26" x1="978.71" y1="706.15" x2="970.12" y2="1007.05"/><line class="cls-26" x1="1198.77" y1="762.44" x2="1190.19" y2="1063.35"/><line class="cls-26" x1="1418.84" y1="818.73" x2="1410.25" y2="1119.64"/><line class="cls-26" x1="1638.9" y1="875.03" x2="1630.31" y2="1175.94"/><line class="cls-23" x1="846.08" y1="1000.02" x2="897.92" y2="1013.28"/><line class="cls-23" x1="1050.5" y1="1052.31" x2="1102.34" y2="1065.57"/><line class="cls-23" x1="1281.88" y1="1111.5" x2="1333.71" y2="1124.76"/><line class="cls-23" x1="1499.98" y1="1167.29" x2="1551.82" y2="1180.55"/><line class="cls-23" x1="1715.16" y1="1222.34" x2="1766.99" y2="1235.6"/><line class="cls-26" x1="1647.8" y1="814.44" x2="1699.63" y2="827.7"/><line class="cls-26" x1="1435.76" y1="760.2" x2="1487.6" y2="773.46"/><line class="cls-26" x1="1215.49" y1="703.85" x2="1267.32" y2="717.11"/><line class="cls-26" x1="1009.73" y1="651.21" x2="1061.56" y2="664.47"/><line class="cls-26" x1="848.71" y1="610.03" x2="900.55" y2="623.29"/><path class="cls-25" d="M3255.74,1158.07c-.43,15-11.44,24.42-24.6,21.06s-23.48-18.25-23.05-33.25,11.44-24.42,24.6-21.06S3256.16,1143.07,3255.74,1158.07Z" transform="translate(-2169.05 -235.23)"/><path class="cls-4" d="M3771.93,1228.65c-60.81,0-112.81-31.32-163.7-62-25-15-50.83-30.6-77.42-42.31-59.75-26.3-103.6-6.42-150,14.63-35.38,16-72,32.62-115.51,26.66-52.6-7.2-81.7-32-109.84-56-24.27-20.68-47.19-40.22-83.92-46.05-75.93-12.06-118.28,69.15-118.69,70a5.77,5.77,0,1,1-10.29-5.25c.46-.9,46.74-89.48,130.79-76.13,39.94,6.34,65.19,27.86,89.61,48.67,26.87,22.9,54.66,46.59,103.91,53.33,40.28,5.51,73.74-9.67,109.18-25.74,46.69-21.17,95-43.06,159.44-14.68,27.26,12,53.43,27.76,78.72,43,78.11,47,151.9,91.46,255.69,31.56,2.09-1.32,56-34.72,95.82-21.66,15.31,5,26.44,16.1,33.09,32.95a5.78,5.78,0,0,1-10.74,4.24c-5.41-13.68-13.89-22.25-25.93-26.21-34.68-11.39-85.77,20.25-86.28,20.57C3838.05,1220.05,3803.78,1228.65,3771.93,1228.65Z" transform="translate(-2169.05 -235.23)"/><path class="cls-27" d="M3245.48,1155.45c-.26,9.08-6.93,14.78-14.89,12.74s-14.21-11-14-20.12,6.93-14.78,14.89-12.74S3245.74,1146.37,3245.48,1155.45Z" transform="translate(-2169.05 -235.23)"/><polygon class="cls-22" points="1537.8 1051.25 1422.39 1021.72 1423.86 970.17 1539.27 999.69 1537.8 1051.25"/><polygon class="cls-22" points="1773.63 1210.24 1658.22 1180.71 1659.69 1129.16 1775.1 1158.68 1773.63 1210.24"/><path class="cls-28" d="M2891.71,2035.17l-224.82,121.68c-10.27,6.21-81.25,19.45-98.76,11.26l-222-68.93c-17.52-8.2-15-29.45-4.69-35.66l256.6-212.28c10.27-6.21,33-4.58,50.52,3.62l248.62,122.78C2914.74,1985.84,2902,2029,2891.71,2035.17Z" transform="translate(-2169.05 -235.23)"/><path class="cls-29" d="M2479,1927.95l57.1,212.82c-1.26,17.37,30.23,32.35,70.35,33.45s73.66-12.09,74.92-29.46l61.28-261.3Z" transform="translate(-2169.05 -235.23)"/><path class="cls-30" d="M2752.18,1800.34l16.09,214.84c-2,17.35,28,31.47,67.13,31.53s72.42-14,74.44-31.31l32.91-275.32Z" transform="translate(-2169.05 -235.23)"/><polygon class="cls-29" points="82.73 1618.9 129.79 1831.56 275.02 1839.06 348.76 1581.16 82.73 1618.9"/><path class="cls-29" d="M2444.07,2074.29c-2.09,17.22-36.29,29.5-76.4,27.42s-70.92-17.71-68.83-34.92,36.29-29.5,76.4-27.42S2446.16,2057.07,2444.07,2074.29Z" transform="translate(-2169.05 -235.23)"/><path class="cls-7" d="M2600.26,1360.69c-105.34,4.22-254.65,56.11-355.93,195.21-36.31,49.87-40.19,108.83-33.65,192,12.51,159.17,114.92,290.16,288.45,308.53,63.62,6.73,122.16-4.3,170.5-28.78.22-.12.47-.21.68-.33l.21-.12q11-5.63,21.32-12.18c106.59-59.77,249.87-127.73,272.38-281.1C2988.27,1570.17,2831.48,1351.42,2600.26,1360.69Z" transform="translate(-2169.05 -235.23)"/><path class="cls-31" d="M2276.48,1932.67c49.25,67.07,124.6,113.41,222.66,123.79,63.62,6.73,122.16-4.3,170.5-28.78.22-.12.47-.21.68-.33l.21-.12q11-5.63,21.32-12.18c106.59-59.77,249.87-127.73,272.38-281.1,7.72-52.62-3.22-110.91-29.29-165.49C2965.58,1860.72,2633.61,2050.32,2276.48,1932.67Z" transform="translate(-2169.05 -235.23)"/><path class="cls-32" d="M2245,1461.81s52-8.46,97.17,13.85c23.18,11.45,34.87,40.07,25.32,62l-11.58,26.62S2243.8,1510.52,2245,1461.81Z" transform="translate(-2169.05 -235.23)"/><path class="cls-7" d="M2229.41,1582.12s-44.12-71,17.6-132.16c0,0,108.29,47.82,110.91,102.51C2357.92,1552.47,2272,1528.69,2229.41,1582.12Z" transform="translate(-2169.05 -235.23)"/><path class="cls-32" d="M2504.86,1614.35s67.87-81.42,169.14-33c0,0,25.58,53.77,36.19,94.47,5.66,21.71-4.72,42.09-24.92,49.41l-53,19.21-50.7-115.72Z" transform="translate(-2169.05 -235.23)"/><path class="cls-7" d="M2512.24,1609.74s42.92-50.86,124.45-13c0,0,60.72,120,2.92,143.05C2639.61,1739.79,2588.15,1628.36,2512.24,1609.74Z" transform="translate(-2169.05 -235.23)"/><path class="cls-32" d="M2488.46,1573.85l185.05-128.41c7.3-5.07,4.55-13.2-6.13-18.06h0c-10.67-4.87-25.38-4.7-32.69.37l-185.05,128.41c-7.3,5.07-4.55,13.2,6.13,18.06h0C2466.45,1579.08,2481.16,1578.91,2488.46,1573.85Z" transform="translate(-2169.05 -235.23)"/><path class="cls-6" d="M2508.38,1584.29l185.05-128.41c7.3-5.07,4.55-13.2-6.13-18.06h0c-10.67-4.87-25.38-4.7-32.69.37l-185.05,128.41c-7.3,5.07-4.55,13.2,6.13,18.06h0C2486.37,1589.52,2501.08,1589.35,2508.38,1584.29Z" transform="translate(-2169.05 -235.23)"/><path class="cls-6" d="M2323.43,1707.93c-2.27,12.77-13.08,20.63-24.14,17.56s-18.19-15.91-15.92-28.67,13.08-20.63,24.14-17.56S2325.7,1695.17,2323.43,1707.93Z" transform="translate(-2169.05 -235.23)"/><path class="cls-6" d="M2499.59,1746.26c-.7,13.66-10.23,23.08-21.3,21s-19.47-14.78-18.78-28.44,10.23-23.08,21.3-21S2500.28,1732.6,2499.59,1746.26Z" transform="translate(-2169.05 -235.23)"/><path class="cls-32" d="M2455.14,1918.84c-2-52.12-51.54-120.61-110.68-153-41-22.45-75.85-21.62-92.69-1.63l-39.63,33.24,182,203.19,38.95-35.23C2447.66,1957.48,2456,1941.61,2455.14,1918.84Z" transform="translate(-2169.05 -235.23)"/><path class="cls-7" d="M2409.45,1957.89c2,52.12-44.34,68.12-103.47,35.74s-108.69-100.87-110.68-153,44.34-68.12,103.47-35.74S2407.46,1905.78,2409.45,1957.89Z" transform="translate(-2169.05 -235.23)"/><path class="cls-7" d="M2405.76,1963.52c2,52.12-44.34,68.12-103.47,35.74s-108.69-100.87-110.68-153,44.34-68.12,103.47-35.74S2403.77,1911.4,2405.76,1963.52Z" transform="translate(-2169.05 -235.23)"/><path class="cls-7" d="M2271.1,1900.09c.5,13.15-9.09,17.41-21.42,9.51s-22.74-25-23.24-38.1,9.09-17.41,21.43-9.51S2270.59,1886.95,2271.1,1900.09Z" transform="translate(-2169.05 -235.23)"/><path class="cls-33" d="M2272.56,1895.38c.5,13.15-9.09,17.41-21.42,9.51s-22.74-25-23.24-38.1,9.09-17.41,21.43-9.51S2272.06,1882.24,2272.56,1895.38Z" transform="translate(-2169.05 -235.23)"/><path class="cls-6" d="M2272.93,1896c.32,8.41-5.82,11.13-13.71,6.08s-14.55-16-14.87-24.38,5.82-11.13,13.71-6.08S2272.61,1887.58,2272.93,1896Z" transform="translate(-2169.05 -235.23)"/><path class="cls-7" d="M2348.47,1931.61c.5,13.15-9.09,17.41-21.43,9.51s-22.74-25-23.24-38.1,9.09-17.41,21.43-9.51S2348,1918.47,2348.47,1931.61Z" transform="translate(-2169.05 -235.23)"/><path class="cls-33" d="M2349.94,1926.9c.5,13.15-9.09,17.41-21.42,9.51s-22.74-25-23.24-38.1,9.09-17.41,21.43-9.51S2349.43,1913.76,2349.94,1926.9Z" transform="translate(-2169.05 -235.23)"/><path class="cls-6" d="M2350.31,1927.51c.32,8.41-5.82,11.13-13.71,6.08s-14.55-16-14.87-24.38,5.82-11.13,13.71-6.08S2350,1919.1,2350.31,1927.51Z" transform="translate(-2169.05 -235.23)"/><path class="cls-34" d="M2227.42,1594s-44.12-71,17.6-132.16c0,0,108.29,47.82,110.91,102.51C2355.93,1564.32,2270,1540.54,2227.42,1594Z" transform="translate(-2169.05 -235.23)"/><path class="cls-34" d="M2504.86,1614.35s42.92-50.86,124.45-13c0,0,60.72,120,2.92,143.05C2632.23,1744.4,2580.77,1633,2504.86,1614.35Z" transform="translate(-2169.05 -235.23)"/><path class="cls-35" d="M2513.49,2058c76.75,1.33,149-16.33,204.31-57.34l-11.25,38.73C2684.59,2058.34,2622.59,2087.11,2513.49,2058Z" transform="translate(-2169.05 -235.23)"/><path class="cls-36" d="M3602,1430.14c52,114.35-17.55,207.3-107.88,234.55s-188.48-33.6-219.23-135.89,17.55-207.3,107.88-234.55S3558,1333.46,3602,1430.14Z" transform="translate(-2169.05 -235.23)"/><polygon class="cls-37" points="1521.97 1474.9 1497.69 1526.36 1389.97 1402.07 1424.02 1361.87 1521.97 1474.9"/><path class="cls-38" d="M3846.53,1833.08l0,0-131.75-146.16h0c-4.2-6.57-13.9-8.35-27.4-3.64-23.52,8.21-49.58,32.93-58.22,55.23-4.47,11.54-3.36,20.13,2,24.63h0l30.83,34.27h0l130.79,145.38,84.61-75.45Z" transform="translate(-2169.05 -235.23)"/><path class="cls-39" d="M3857.7,1869.07c20.76-8.75,28.06.94,16.3,21.64s-38.11,44.58-58.86,53.33-28.06-.94-16.3-21.64S3836.95,1877.83,3857.7,1869.07Z" transform="translate(-2169.05 -235.23)"/><path class="cls-39" d="M3458.67,1283.48c-100.52-22.13-186.73,48.63-192.55,158s70.94,216,171.46,238.17,186.73-48.63,192.55-158S3559.19,1305.61,3458.67,1283.48Zm158.46,230.69c-4.95,92.93-92.59,154.48-178,135.69s-150.58-109.37-145.63-202.3,82.46-166.77,167.84-148S3622.08,1421.23,3617.13,1514.17Z" transform="translate(-2169.05 -235.23)"/><path class="cls-39" d="M3662.75,1448.08c-.31-2.28-.62-4.56-1-6.83-.07-.4-.15-.81-.22-1.21-.18-1.08-.39-2.15-.59-3.22-.24-1.31-.46-2.62-.72-3.92-.15-.72-.32-1.44-.48-2.16-.24-1.16-.5-2.31-.76-3.47-.2-.89-.38-1.78-.59-2.67-.25-1.06-.55-2.12-.82-3.18s-.58-2.29-.89-3.44c-.15-.56-.28-1.13-.44-1.7-.42-1.5-.88-3-1.33-4.47-.29-1-.56-1.94-.86-2.9-.08-.27-.16-.55-.24-.82q-1.26-4-2.65-7.92l0-.09c-.08-.24-.18-.47-.27-.71-.83-2.32-1.68-4.63-2.58-6.92-.14-.36-.3-.72-.44-1.08-.34-.87-.71-1.72-1.06-2.58-.5-1.23-1-2.46-1.51-3.68-.34-.78-.7-1.54-1-2.32q-.63-1.41-1.27-2.82c-.31-.69-.61-1.38-.93-2.07-.64-1.37-1.32-2.71-2-4.06-.35-.72-.69-1.45-1.05-2.16l-.37-.77q-1.79-3.54-3.69-7l-.17-.29c-.37-.67-.76-1.31-1.13-2-1-1.78-2-3.56-3-5.3-.16-.28-.34-.54-.51-.82-.86-1.44-1.76-2.85-2.65-4.26-.71-1.14-1.39-2.29-2.12-3.42-.13-.2-.28-.4-.42-.6q-3.57-5.46-7.42-10.7c-.22-.3-.41-.61-.63-.9-.65-.88-1.35-1.73-2-2.61-1.08-1.43-2.16-2.85-3.28-4.25-1-1.24-2-2.46-3-3.67-1.13-1.37-2.27-2.73-3.43-4.08-.38-.44-.74-.9-1.13-1.34-.92-1.05-1.88-2.07-2.82-3.11-.64-.71-1.28-1.43-1.93-2.13-2-2.2-4.13-4.37-6.25-6.48l-.06-.06h0l-.06-.05q-3.64-3.61-7.42-7l-.33-.31c-1.84-1.67-3.72-3.28-5.6-4.88-.38-.32-.75-.66-1.13-1l-.07-.06q-3.37-2.82-6.83-5.49l-.35-.26c-.71-.54-1.43-1.06-2.14-1.59-1.46-1.1-2.92-2.21-4.41-3.27l-.85-.58c-1-.71-2-1.39-3.05-2.08s-2.24-1.56-3.38-2.3c-.42-.27-.86-.52-1.28-.8-1.11-.71-2.23-1.4-3.36-2.09-1-.59-1.91-1.22-2.89-1.8-.55-.33-1.12-.62-1.67-.94-1.21-.7-2.43-1.38-3.65-2.06-.85-.47-1.68-1-2.54-1.43-.67-.36-1.36-.68-2-1q-1.84-1-3.7-1.87c-.75-.37-1.49-.78-2.25-1.14s-1.65-.74-2.47-1.12c-1.21-.56-2.43-1.11-3.65-1.65-.63-.28-1.25-.58-1.88-.85-1-.44-2.08-.82-3.11-1.24s-2.28-.93-3.43-1.37c-.46-.18-.92-.38-1.38-.55-1.4-.52-2.81-1-4.22-1.47-1-.34-1.93-.69-2.9-1l-.74-.26q-3.82-1.24-7.7-2.31l-.07,0-.57-.14c-2.34-.64-4.69-1.24-7.05-1.79l-1.79-.4q-2.9-.64-5.79-1.18c-.73-.14-1.46-.23-2.19-.36l-3-.49c-.77-.12-1.54-.27-2.31-.38-1.23-.17-2.45-.29-3.68-.44-.88-.11-1.76-.22-2.64-.31l-1.09-.13q-3.68-.36-7.32-.55h0q-3.72-.19-7.39-.22l-1,0c-.89,0-1.77,0-2.66,0-1.26,0-2.52,0-3.77.06-.62,0-1.24.09-1.86.12-1.09.06-2.17.13-3.26.21-.84.06-1.68.09-2.51.16s-1.73.2-2.6.3c-1.09.12-2.18.23-3.26.37-.57.07-1.15.12-1.72.2-1,.14-2,.34-3,.51-1.26.2-2.52.4-3.76.63-.44.08-.89.14-1.33.22-1,.2-2.05.47-3.08.69-1.34.29-2.68.57-4,.9-.39.1-.79.17-1.18.27-.91.23-1.79.53-2.7.78-1.59.44-3.17.88-4.74,1.36-.44.14-.89.24-1.33.38q-2.61.84-5.18,1.77l-.66.25c-1.3.48-2.6,1-3.88,1.48-.82.33-1.62.69-2.43,1l-1.83.78c-2.22,1-4.42,2-6.59,3.05l-.2.11c-.59.29-1.16.62-1.75.93-1.8.93-3.6,1.88-5.36,2.88-.86.49-1.7,1-2.55,1.52-1.13.67-2.27,1.32-3.38,2-.28.18-.55.38-.83.56-1.71,1.1-3.38,2.26-5,3.42-.81.57-1.64,1.11-2.44,1.7-2.44,1.79-4.83,3.63-7.16,5.57l-38.13,31.67c2.33-1.94,4.72-3.79,7.16-5.57.8-.58,1.63-1.13,2.43-1.69,1.66-1.17,3.33-2.33,5-3.43,1.38-.89,2.79-1.74,4.2-2.58.85-.51,1.69-1,2.55-1.53,1.76-1,3.56-2,5.36-2.88.59-.3,1.16-.63,1.75-.93,2.23-1.11,4.5-2.16,6.78-3.16l1.84-.78c2.08-.88,4.18-1.72,6.31-2.5l.66-.25c2.14-.78,4.32-1.48,6.51-2.16,1.57-.49,3.16-.93,4.75-1.37,1.29-.35,2.57-.72,3.87-1s2.67-.61,4-.9,2.93-.64,4.41-.91c1.24-.23,2.5-.43,3.75-.63,1.58-.25,3.17-.5,4.77-.7,1.08-.14,2.16-.25,3.25-.37q2.55-.27,5.12-.46c1.08-.08,2.17-.15,3.26-.21,1.86-.1,3.73-.15,5.61-.18.89,0,1.77,0,2.67,0,2.77,0,5.54.06,8.35.2h0c2.78.15,5.59.38,8.41.68.87.09,1.76.21,2.63.31q3,.36,6,.82l3,.49c2.65.46,5.31.95,8,1.53,3,.66,5.94,1.4,8.87,2.2l.53.14c2.86.79,5.7,1.67,8.52,2.59,1,.32,1.92.67,2.88,1,1.88.65,3.76,1.32,5.62,2,1.14.44,2.28.9,3.41,1.36,1.68.68,3.35,1.37,5,2.1,1.22.53,2.44,1.09,3.65,1.65q2.37,1.1,4.72,2.25,1.86.92,3.7,1.87,2.3,1.2,4.57,2.46c1.22.68,2.44,1.35,3.65,2.06,1.53.89,3,1.81,4.56,2.74,1.13.69,2.25,1.38,3.37,2.09,1.56,1,3.1,2,4.64,3.08,1,.69,2.05,1.37,3.07,2.09,1.77,1.25,3.52,2.54,5.26,3.85.71.53,1.44,1,2.14,1.59q3.68,2.83,7.25,5.81c.37.31.72.64,1.09,1,2,1.71,4,3.44,6,5.22q3.74,3.41,7.35,7l.13.12,0,0c2.14,2.12,4.23,4.3,6.28,6.52.65.7,1.29,1.42,1.94,2.13q2,2.2,3.95,4.45c1.16,1.34,2.29,2.71,3.42,4.07s2,2.44,3,3.68c1.11,1.39,2.19,2.81,3.27,4.23.89,1.17,1.78,2.34,2.64,3.52q3.84,5.25,7.41,10.7c.87,1.33,1.7,2.68,2.54,4s1.79,2.83,2.65,4.27c1.2,2,2.37,4,3.51,6.09.38.67.78,1.33,1.15,2q2.19,4,4.23,8.07c.36.72.7,1.44,1.05,2.16q1.49,3,2.91,6.13.64,1.41,1.27,2.82,1.32,3,2.55,6c.35.86.72,1.72,1.06,2.58q1.59,4,3,8c.08.22.17.44.25.66,1,2.92,2,5.87,2.93,8.84.3,1,.57,1.94.86,2.91.61,2,1.2,4.09,1.76,6.15.31,1.15.6,2.31.89,3.46q.74,2.9,1.4,5.82c.26,1.16.52,2.31.77,3.48.43,2,.82,4.06,1.2,6.09.2,1.07.41,2.13.59,3.2q.68,4,1.22,8c.05.39.12.78.17,1.18.4,3.08.72,6.18,1,9.28.08.88.13,1.77.19,2.66.17,2.23.31,4.47.42,6.71,0,1.08.09,2.16.12,3.25q.1,3.2.11,6.4c0,1,0,2.07,0,3.11,0,3.06-.11,6.12-.27,9.18-.17,3.22-.42,6.39-.73,9.54-.09.9-.21,1.77-.31,2.66-.24,2.17-.5,4.33-.81,6.47-.18,1.24-.38,2.46-.58,3.69-.29,1.82-.6,3.64-.94,5.43-.25,1.32-.52,2.64-.8,3.95q-.53,2.5-1.11,5-.53,2.22-1.1,4.4t-1.23,4.44q-.75,2.59-1.57,5.14c-.43,1.33-.86,2.65-1.31,4-.71,2.06-1.47,4.08-2.24,6.09-.49,1.26-1,2.53-1.47,3.78-.26.63-.52,1.24-.79,1.86q-1.35,3.17-2.81,6.27c-.19.4-.37.81-.56,1.21q-1.86,3.87-3.89,7.6l0,.05q-2,3.72-4.23,7.29c-.29.48-.61.95-.9,1.42q-1.67,2.66-3.43,5.25c-.47.69-.95,1.37-1.43,2.06q-1.66,2.36-3.4,4.65c-.44.58-.88,1.17-1.32,1.75-1.59,2-3.21,4-4.89,6-.24.27-.48.53-.72.8q-2.19,2.5-4.47,4.9c-.55.58-1.12,1.15-1.68,1.72q-2,2-4,3.89c-.56.53-1.11,1.06-1.67,1.57-1.87,1.72-3.77,3.4-5.71,5l38.13-31.67c1.95-1.62,3.84-3.3,5.71-5,.56-.52,1.11-1,1.67-1.57q2-1.91,4-3.89c.56-.57,1.12-1.14,1.68-1.72q2.28-2.4,4.47-4.9c.24-.27.49-.53.72-.8,1.67-1.94,3.3-3.94,4.89-6,.45-.58.88-1.17,1.32-1.75q1.74-2.29,3.4-4.65c.48-.68,1-1.36,1.43-2.06q1.76-2.58,3.43-5.25c.3-.48.61-.94.9-1.42l.27-.42q2-3.37,4-6.86l0-.05q1.9-3.49,3.66-7.1l.23-.49c.19-.4.37-.81.57-1.22q1.46-3.09,2.81-6.26c.26-.62.53-1.24.79-1.86.19-.46.4-.92.58-1.38.32-.78.58-1.6.88-2.39.78-2,1.53-4,2.24-6.09.19-.55.41-1.07.6-1.62.26-.77.47-1.57.72-2.34q.82-2.55,1.57-5.14c.2-.71.44-1.39.64-2.1s.38-1.57.59-2.34q.58-2.19,1.11-4.41c.18-.76.39-1.5.57-2.26s.36-1.8.54-2.7c.28-1.31.55-2.62.8-3.95.13-.67.29-1.33.41-2,.2-1.13.35-2.28.54-3.42s.4-2.45.58-3.69c.07-.5.16-1,.23-1.48.22-1.64.39-3.32.57-5,.1-.89.22-1.77.31-2.67,0-.22.05-.43.08-.65q.39-4.16.63-8.39l0-.5q.21-3.87.28-7.73c0-.48,0-1,0-1.45,0-1,0-2.07,0-3.1,0-1.21,0-2.43,0-3.64,0-.93-.07-1.85-.1-2.77,0-1.08-.07-2.16-.12-3.24,0-.71,0-1.42-.08-2.13-.08-1.53-.22-3.06-.34-4.59-.07-.88-.12-1.76-.19-2.64,0-.29,0-.59-.07-.88q-.38-4.12-.9-8.23l0-.18C3662.87,1448.86,3662.8,1448.47,3662.75,1448.08Z" transform="translate(-2169.05 -235.23)"/><path class="cls-40" d="M3454.2,1277.13c-48.93-10.77-96.75-.7-134.63,28.34-40.89,31.35-65.09,80.19-68.15,137.54-6,111.74,72.84,221.06,175.63,243.69,30,6.6,59.51,5.38,86.62-3.22a156.71,156.71,0,0,0,48-25.11c40.89-31.35,65.09-80.19,68.15-137.54C3635.79,1409.08,3557,1299.76,3454.2,1277.13Zm152.85,242.6c-2.69,50.46-24,93.44-60,121a137.88,137.88,0,0,1-42.25,22.09c-23.85,7.57-49.84,8.64-76.21,2.84-90.45-19.91-159.78-116.1-154.54-214.42,2.69-50.46,24-93.44,60-121,33.33-25.55,75.41-34.41,118.46-24.93C3543,1325.22,3612.29,1421.41,3607.05,1519.73Z" transform="translate(-2169.05 -235.23)"/><path class="cls-41" d="M3644.42,1775.06h0a7.06,7.06,0,0,1-9.94.68l-7.06-6.16a7.06,7.06,0,0,1-.68-9.94h0a7.06,7.06,0,0,1,9.94-.68l7.06,6.16A7.06,7.06,0,0,1,3644.42,1775.06Z" transform="translate(-2169.05 -235.23)"/><path class="cls-5" d="M3890.1,2218.76c-25.32-11-69-13.57-97.49-5.64a64.81,64.81,0,0,0-12.31,4.66c-17.92-4.93-42.34-5.47-59.23-.77-20,5.57-21.88,16.38-4.09,24.14,17.09,7.46,46.06,9.36,66.09,4.56,1.17.6,2.4,1.19,3.73,1.77,25.32,11,69,13.57,97.49,5.64S3915.41,2229.81,3890.1,2218.76Z" transform="translate(-2169.05 -235.23)"/><polygon class="cls-42" points="1633.33 1764.63 1573.41 1772.25 1576.28 1710.17 1636.2 1702.55 1633.33 1764.63"/><path class="cls-42" d="M3748,2216l-12.21,1.47c-8.82-1.61-14.36-4.15-17.38-1.23l-.81,1.42c-1.17,2.08,1.47,5.73,4.67,7.15l23.69,10.75c4.66,1.34,9.69-.06,9.91-4.28,0,0,.52-11.79-1.61-12.36C3750,2217.79,3751.73,2217.07,3748,2216Z" transform="translate(-2169.05 -235.23)"/><path class="cls-42" d="M3868.2,2198.93l-5.12,11.18c-6,6.68-11.27,11.79-10.36,15.89l.67.59c1.16,2.08,6,.87,8.9-1.12l21.53-14.59c3.57-3.28,5-8.3,1.52-10.68,0,0-9.79-6.6-11.38-5.08C3870.76,2198.17,3871.05,2196.31,3868.2,2198.93Z" transform="translate(-2169.05 -235.23)"/><path class="cls-41" d="M3742,2219.82c-.17,4.94,11.86,5.36,12,.41l.55-16.07-12-.41Z" transform="translate(-2169.05 -235.23)"/><path class="cls-43" d="M3734.95,2203.76c6.85,10.15,24.85,10.82,29,4.35,3.88-39.14,18.85-80.32,6-135l24.35-162.86-73.72,11.24,9,173.53Z" transform="translate(-2169.05 -235.23)"/><path class="cls-41" d="M3863.79,2201.43c2.47,4.87,16.08-1.7,13.61-6.57l-8-15.83-13.61,6.57Z" transform="translate(-2169.05 -235.23)"/><path class="cls-43" d="M3850,2191.73c9.61,6.72,22.68-5.59,24.75-12.64-9-35.78-11.84-78.82-40.1-134.92l.39-75.32c2.51-14.47-.51-24.11-4.38-45.64l-65,20.84,33.21,141.51c.61,2.62,4.22,9.53,5.38,11.92Z" transform="translate(-2169.05 -235.23)"/><path class="cls-41" d="M3762.59,1735.19c-1.47,11.64,5,17.87,14.42,13.9s13.6-18,15.71-29.56c1-5.54-.93-16.57-10.37-12.61S3764.07,1723.55,3762.59,1735.19Z" transform="translate(-2169.05 -235.23)"/><path class="cls-41" d="M3748,1729.56c-3.61,11.17,10.15,19.18,19.11,14.23s16.39-18.49,16.61-30.22-10.91-17.69-19.87-12.73S3750.63,1721.53,3748,1729.56Z" transform="translate(-2169.05 -235.23)"/><path class="cls-41" d="M3776.64,1766.45l1.21-.25a7.11,7.11,0,0,0,5.45-8.92l-6.2-22.8a8.19,8.19,0,0,0-9.44-5.79l-1.21.25a7.11,7.11,0,0,0-5.45,8.92l2.69,22.59C3764.79,1764.5,3772.55,1767.31,3776.64,1766.45Z" transform="translate(-2169.05 -235.23)"/><path class="cls-42" d="M3787.56,1741.74s.28,6.49-14,4.2c-10.8-1.72-5-18.68-14.71-23.76-13.15-6.86-7.24-19.77-1.1-23.8s13.58-1.19,22.74,2.35C3790.14,1704.49,3803.19,1712.73,3787.56,1741.74Z" transform="translate(-2169.05 -235.23)"/><circle class="cls-41" cx="3760.49" cy="1727.08" r="5.17" transform="translate(-204.09 5220.14) rotate(-88.95)"/><path class="cls-31" d="M3837.17,1917.86c-8.39-29.42-16.44-41.1-17.55-54.42-.66-7.87,3.88-27.85,5.14-40.16,2.21-63.54,2.67-61.68-17.88-66.92l-13.86-2.2c-6.55-1.23-15.35-1.39-19.7-.53-18.21,3.57-42.72,14.17-56,20.58-11.81,5.71,6.5,16,5.89,30,7.55,56.59,2.37,102.78.86,123C3729.31,1956.4,3825.31,1936.94,3837.17,1917.86Z" transform="translate(-2169.05 -235.23)"/><path class="cls-44" d="M3718.13,1808.75l10,11.89c10.09,50.63,2.13,98.32,21.48,120.62-12.44-.61-21.16.82-29.31-5.78-.46,0-3.33-2-3.61-8.25l4.76-64.36C3722.06,1841.6,3709,1824.19,3718.13,1808.75Z" transform="translate(-2169.05 -235.23)"/><path class="cls-42" d="M3794,1713.16s2.29,21.39,14.41,27.22,26,23.59,24.17,45.56,16.77,27.13,13.27,41.58-12.08,8.4-29.24,16.4-38.24-2.42-34.69-24.06,2.93-23.07-7.42-36.9-9.33-20.54-8.72-47.56l9.72-10.14Z" transform="translate(-2169.05 -235.23)"/><path class="cls-41" d="M3731.34,2218.77l13.43,4.38.17-6.19-2.87-.24-6.28.76-6.39-1.28S3727.08,2217.68,3731.34,2218.77Z" transform="translate(-2169.05 -235.23)"/><path class="cls-41" d="M3876.81,2198.43s-5.55,12.33-9.56,14.4a25.45,25.45,0,0,1-8.84,2.35l4.68-5.06.46-11.43Z" transform="translate(-2169.05 -235.23)"/><path class="cls-31" d="M3747.45,1808.75s-57.38,30.15-75.45,20.17c-26.2-14.46-36.41-50.44-36.41-50.44l10.81-11.88s19.76,32.21,27.1,30.71,41.38-21.47,41.38-21.47Z" transform="translate(-2169.05 -235.23)"/><polygon class="cls-4" points="1162.83 286.58 1397.41 16.08 1613.85 388.26 1162.83 286.58"/><polygon class="cls-3" points="1268.98 464.72 1268.98 430.95 1513.56 494.85 1513.56 527.22 1268.98 464.72"/><path class="cls-18" d="M3349.73,2163.25c-47.13-24.13-134.65-24.67-195.48-1.21s-71.92,62-24.79,86.17,134.65,24.67,195.48,1.21S3396.87,2187.38,3349.73,2163.25Z" transform="translate(-2169.05 -235.23)"/><path class="cls-45" d="M3310.93,2158.58c1.18,4.35-.07,37.15-2.16,41.89-3.78,15.07-17.88,29.61-42,40.61-53,24.14-134,22.16-181-4.43-21.92-12.39-34-25.21-34.63-41.52-.91-8.81-1.79-33.44-1.79-33.44,1.58-5.42,8.61,0,12.86-5.08,7-10.06,18.88-19.43,35.67-27.08,53-24.14,134-22.16,181,4.43C3298.67,2145.16,3309.23,2144.58,3310.93,2158.58Z" transform="translate(-2169.05 -235.23)"/><path class="cls-7" d="M3280,2116.51c-46.77-27.48-129.37-29.68-184.49-4.9s-61.88,67.14-15.11,94.62,129.37,29.68,184.49,4.9S3326.81,2144,3280,2116.51Z" transform="translate(-2169.05 -235.23)"/><path class="cls-46" d="M3279.95,2112.87c-46.77-27.48-129.37-29.68-184.49-4.9s-61.88,67.14-15.11,94.62,129.37,29.68,184.49,4.9S3326.72,2140.35,3279.95,2112.87Z" transform="translate(-2169.05 -235.23)"/><path class="cls-7" d="M3249.78,2124.61c-32.7-19.21-90.44-20.75-129-3.43s-43.26,46.94-10.56,66.15,90.44,20.75,129,3.43S3282.48,2143.82,3249.78,2124.61Z" transform="translate(-2169.05 -235.23)"/><path class="cls-47" d="M3120.94,2126.92c38.53-17.32,96.28-15.79,129,3.43,13,7.66,20.12,17,21.49,26.5,1.09-11.47-6-23-21.62-32.23-32.7-19.21-90.44-20.75-129-3.43-23.17,10.42-34.11,25.28-32,39.65C3089.95,2148.33,3100.84,2136,3120.94,2126.92Z" transform="translate(-2169.05 -235.23)"/><path class="cls-48" d="M3139.92,2172.2c-5.54-4-10.13-9.69-10.32-14.88l18-1.36a17,17,0,0,0,8.81,11.89c6,3.44,11.29,3.75,16.47,1.29,11.61-5.5-17-21.62,3.33-31.24,11-5.24,24.94-5.3,37.17-.54l11.61-5.5,10.41,6-11.38,5.4c5.86,4.41,7.19,9,6.75,13.54l-17.41-.06c-.15-4-1.56-6.79-6.07-9.37-5.15-3-10.08-3.53-15.16-1.13-10.71,5.08,18.53,20.87-3,31.08-10.82,5.13-24.85,5.82-38.39.67l-11.72,5.56-10.41-6Z" transform="translate(-2169.05 -235.23)"/><line class="cls-49" x1="1014.72" y1="1994.25" x2="1015.73" y2="2022.69"/><line class="cls-49" x1="1048.34" y1="1991.41" x2="1049.13" y2="2019.09"/><line class="cls-49" x1="1080.17" y1="1983.73" x2="1080.96" y2="2011.41"/><line class="cls-49" x1="1108.59" y1="1971.3" x2="1109.32" y2="1996.82"/><line class="cls-49" x1="1131.66" y1="1952.87" x2="1131.62" y2="1978.82"/><line class="cls-49" x1="979.43" y1="1992.89" x2="979.97" y2="2020.57"/><line class="cls-49" x1="947.26" y1="1986.58" x2="947.81" y2="2014.26"/><line class="cls-49" x1="918.28" y1="1975.37" x2="918.78" y2="2000.9"/><line class="cls-49" x1="894.35" y1="1957.95" x2="895.63" y2="1983.88"/><path class="cls-45" d="M3312.12,2107.28c1.18,4.35-.07,37.15-2.16,41.89-3.78,15.07-17.88,29.61-42,40.61-53,24.14-134,22.16-181-4.43-21.92-12.39-34-25.21-34.63-41.52-.91-8.81-1.79-33.44-1.79-33.44,1.58-5.42,8.61,0,12.86-5.08,7-10.06,18.88-19.43,35.67-27.08,53-24.14,134-22.16,181,4.43C3299.86,2093.86,3310.42,2093.28,3312.12,2107.28Z" transform="translate(-2169.05 -235.23)"/><path class="cls-7" d="M3281.23,2065.21c-46.77-27.48-129.37-29.68-184.49-4.9s-61.88,67.14-15.11,94.62,129.37,29.68,184.49,4.9S3328,2092.7,3281.23,2065.21Z" transform="translate(-2169.05 -235.23)"/><path class="cls-48" d="M3281.14,2061.56c-46.77-27.48-129.37-29.68-184.49-4.9s-61.88,67.14-15.11,94.62,129.37,29.68,184.49,4.9S3327.91,2089,3281.14,2061.56Z" transform="translate(-2169.05 -235.23)"/><path class="cls-7" d="M3251,2073.31c-32.7-19.21-90.44-20.75-129-3.43s-43.26,46.94-10.56,66.15,90.44,20.75,129,3.43S3283.67,2092.52,3251,2073.31Z" transform="translate(-2169.05 -235.23)"/><path class="cls-45" d="M3122.13,2075.62c38.53-17.32,96.28-15.79,129,3.43,13,7.66,20.12,17,21.49,26.5,1.09-11.47-6-23-21.62-32.23-32.7-19.21-90.44-20.75-129-3.43-23.17,10.42-34.11,25.28-32,39.65C3091.14,2097,3102,2084.65,3122.13,2075.62Z" transform="translate(-2169.05 -235.23)"/><path class="cls-48" d="M3141.11,2120.9c-5.54-4-10.13-9.69-10.32-14.88l18-1.36a17,17,0,0,0,8.81,11.89c6,3.44,11.29,3.75,16.47,1.29,11.61-5.5-17-21.62,3.33-31.24,11-5.24,24.94-5.3,37.17-.54l11.61-5.5,10.41,6-11.38,5.4c5.86,4.41,7.19,9,6.75,13.54l-17.41-.06c-.15-4-1.56-6.79-6.07-9.37-5.15-3-10.09-3.53-15.16-1.13-10.71,5.08,18.53,20.87-3,31.08-10.82,5.13-24.85,5.82-38.39.67l-11.72,5.56-10.41-6Z" transform="translate(-2169.05 -235.23)"/><line class="cls-49" x1="1015.91" y1="1942.95" x2="1016.92" y2="1971.39"/><line class="cls-49" x1="1049.53" y1="1940.11" x2="1050.32" y2="1967.79"/><line class="cls-49" x1="1081.36" y1="1932.43" x2="1082.15" y2="1960.11"/><line class="cls-49" x1="1109.78" y1="1919.99" x2="1110.51" y2="1945.52"/><line class="cls-49" x1="1132.85" y1="1901.57" x2="1132.81" y2="1927.52"/><line class="cls-49" x1="980.62" y1="1941.58" x2="981.16" y2="1969.27"/><line class="cls-49" x1="948.45" y1="1935.27" x2="949" y2="1962.96"/><line class="cls-49" x1="919.47" y1="1924.07" x2="919.97" y2="1949.6"/><line class="cls-49" x1="895.54" y1="1906.65" x2="896.82" y2="1932.58"/><g class="cls-50"><path class="cls-51" d="M3171.91,2257.82s60-20.93,64.73-87.86c0,0,75.34-17.63,75.6-62.12,0,0,.54,33.23-2,40.47,0,0,2.94,11.11-.34,46.41,0,0-.75,22.93-31.9,40.56C3278,2235.28,3238.85,2260.2,3171.91,2257.82Z" transform="translate(-2169.05 -235.23)"/></g><path class="cls-45" d="M3576.48,2153.13c1.1,4,.28,34.14-1.55,38.5-3.27,13.87-15.84,27.29-37.49,37.51-47.5,22.42-120.56,21-163.2-3.25-19.87-11.29-30.85-23-31.6-38-.9-8.09-1.93-30.72-1.93-30.72,1.37-5,7.76,0,11.54-4.72,6.2-9.28,16.84-17.94,31.89-25,47.5-22.42,120.56-21,163.2,3.25C3565.3,2140.86,3574.82,2140.27,3576.48,2153.13Z" transform="translate(-2169.05 -235.23)"/><path class="cls-7" d="M3548.24,2114.62c-42.41-25-116.87-26.68-166.31-3.66s-55.14,62-12.74,87,116.87,26.68,166.31,3.66S3590.65,2139.66,3548.24,2114.62Z" transform="translate(-2169.05 -235.23)"/><path class="cls-46" d="M3548.13,2111.27c-42.41-25-116.87-26.68-166.31-3.66s-55.14,62-12.74,87,116.87,26.68,166.31,3.66S3590.54,2136.31,3548.13,2111.27Z" transform="translate(-2169.05 -235.23)"/><path class="cls-7" d="M3521.05,2122.2c-29.65-17.51-81.7-18.65-116.26-2.56s-38.55,43.33-8.9,60.83,81.7,18.65,116.26,2.56S3550.7,2139.7,3521.05,2122.2Z" transform="translate(-2169.05 -235.23)"/><path class="cls-47" d="M3405,2124.9c34.56-16.09,86.62-14.94,116.26,2.56,11.82,7,18.29,15.5,19.61,24.25.88-10.54-5.6-21.14-19.79-29.52-29.65-17.51-81.7-18.65-116.26-2.56-20.79,9.68-30.51,23.38-28.51,36.58C3377.24,2144.72,3386.94,2133.29,3405,2124.9Z" transform="translate(-2169.05 -235.23)"/><path class="cls-48" d="M3422.49,2166.43c-5-3.65-9.22-8.86-9.44-13.62l16.24-1.33a15.74,15.74,0,0,0,8.05,10.88c5.45,3.14,10.21,3.39,14.86,1.11,10.41-5.11-15.48-19.79,2.72-28.72,9.91-4.86,22.43-5,33.49-.67l10.41-5.11,9.44,5.43-10.21,5c5.32,4,6.56,8.19,6.21,12.41l-15.69,0c-.17-3.65-1.47-6.23-5.55-8.58-4.67-2.69-9.12-3.2-13.67-1-9.6,4.71,16.9,19.1-2.41,28.57-9.7,4.76-22.34,5.47-34.59.79l-10.51,5.16-9.44-5.43Z" transform="translate(-2169.05 -235.23)"/><line class="cls-49" x1="1293.49" y1="1983.63" x2="1294.66" y2="2009.76"/><line class="cls-49" x1="1323.76" y1="1980.87" x2="1324.73" y2="2006.3"/><line class="cls-49" x1="1352.38" y1="1973.67" x2="1353.34" y2="1999.09"/><line class="cls-49" x1="1377.87" y1="1962.11" x2="1378.76" y2="1985.56"/><line class="cls-49" x1="1398.49" y1="1945.07" x2="1398.7" y2="1968.92"/><line class="cls-49" x1="1261.67" y1="1982.54" x2="1262.42" y2="2007.97"/><line class="cls-49" x1="1232.63" y1="1976.88" x2="1233.37" y2="2002.32"/><line class="cls-49" x1="1206.4" y1="1966.72" x2="1207.09" y2="1990.18"/><line class="cls-49" x1="1184.68" y1="1950.82" x2="1186.07" y2="1974.64"/><path class="cls-45" d="M3573.27,2106c1.1,4,.28,34.14-1.55,38.5-3.27,13.87-15.84,27.29-37.49,37.51-47.5,22.42-120.56,21-163.2-3.25-19.87-11.29-30.85-23-31.6-38-.9-8.09-1.93-30.72-1.93-30.72,1.37-5,7.76,0,11.54-4.72,6.2-9.28,16.84-17.94,31.89-25,47.5-22.42,120.56-21,163.2,3.25C3562.1,2093.75,3571.61,2093.17,3573.27,2106Z" transform="translate(-2169.05 -235.23)"/><path class="cls-7" d="M3545,2067.51c-42.41-25-116.87-26.68-166.31-3.66s-55.14,62-12.74,87,116.87,26.68,166.31,3.66S3587.45,2092.55,3545,2067.51Z" transform="translate(-2169.05 -235.23)"/><path class="cls-46" d="M3544.93,2064.16c-42.41-25-116.87-26.68-166.31-3.66s-55.14,62-12.74,87,116.87,26.68,166.31,3.66S3587.34,2089.2,3544.93,2064.16Z" transform="translate(-2169.05 -235.23)"/><path class="cls-7" d="M3517.85,2075.09c-29.65-17.51-81.7-18.65-116.26-2.56s-38.55,43.33-8.9,60.83,81.7,18.65,116.26,2.56S3547.5,2092.59,3517.85,2075.09Z" transform="translate(-2169.05 -235.23)"/><path class="cls-45" d="M3401.76,2077.79c34.56-16.09,86.62-14.94,116.26,2.56,11.82,7,18.29,15.5,19.61,24.25.88-10.54-5.6-21.14-19.79-29.52-29.65-17.51-81.7-18.65-116.26-2.56-20.79,9.68-30.51,23.38-28.51,36.58C3374,2097.61,3383.74,2086.19,3401.76,2077.79Z" transform="translate(-2169.05 -235.23)"/><path class="cls-48" d="M3419.29,2119.32c-5-3.65-9.22-8.86-9.44-13.62l16.24-1.33a15.74,15.74,0,0,0,8.05,10.88c5.45,3.14,10.21,3.39,14.86,1.11,10.41-5.11-15.48-19.79,2.72-28.72,9.91-4.86,22.43-5,33.49-.67l10.41-5.11,9.44,5.43-10.21,5c5.32,4,6.56,8.19,6.21,12.41l-15.69,0c-.17-3.65-1.47-6.23-5.55-8.58-4.67-2.69-9.12-3.2-13.67-1-9.6,4.71,16.9,19.1-2.41,28.57-9.71,4.76-22.34,5.47-34.59.79l-10.51,5.16-9.44-5.43Z" transform="translate(-2169.05 -235.23)"/><line class="cls-49" x1="1290.28" y1="1936.52" x2="1291.46" y2="1962.65"/><line class="cls-49" x1="1320.56" y1="1933.76" x2="1321.52" y2="1959.19"/><line class="cls-49" x1="1349.17" y1="1926.56" x2="1350.14" y2="1951.99"/><line class="cls-49" x1="1374.67" y1="1915" x2="1375.56" y2="1938.45"/><line class="cls-49" x1="1395.28" y1="1897.97" x2="1395.49" y2="1921.82"/><line class="cls-49" x1="1258.47" y1="1935.43" x2="1259.21" y2="1960.87"/><line class="cls-49" x1="1229.42" y1="1929.78" x2="1230.17" y2="1955.21"/><line class="cls-49" x1="1203.2" y1="1919.61" x2="1203.88" y2="1943.07"/><line class="cls-49" x1="1181.47" y1="1903.72" x2="1182.87" y2="1927.53"/><path class="cls-45" d="M3572.83,2062.61c1.1,4,.28,34.14-1.55,38.5-3.27,13.87-15.84,27.29-37.49,37.51-47.5,22.42-120.56,21-163.2-3.25-19.87-11.29-30.85-23-31.6-38-.9-8.09-1.93-30.72-1.93-30.72,1.37-5,7.76,0,11.54-4.72,6.2-9.28,16.84-17.94,31.89-25,47.5-22.42,120.56-21,163.2,3.25C3561.66,2050.34,3571.18,2049.75,3572.83,2062.61Z" transform="translate(-2169.05 -235.23)"/><path class="cls-7" d="M3544.6,2024.1c-42.41-25-116.87-26.68-166.31-3.66s-55.14,62-12.74,87,116.87,26.68,166.31,3.66S3587,2049.14,3544.6,2024.1Z" transform="translate(-2169.05 -235.23)"/><path class="cls-46" d="M3544.49,2020.75c-42.41-25-116.87-26.68-166.31-3.66s-55.14,62-12.74,87,116.87,26.68,166.31,3.66S3586.9,2045.79,3544.49,2020.75Z" transform="translate(-2169.05 -235.23)"/><path class="cls-7" d="M3517.41,2031.68c-29.65-17.51-81.7-18.65-116.26-2.56s-38.55,43.33-8.9,60.83,81.7,18.65,116.26,2.56S3547.06,2049.18,3517.41,2031.68Z" transform="translate(-2169.05 -235.23)"/><path class="cls-45" d="M3401.32,2034.38c34.56-16.09,86.62-14.94,116.26,2.56,11.82,7,18.29,15.5,19.61,24.25.88-10.54-5.6-21.14-19.79-29.52-29.65-17.51-81.7-18.65-116.26-2.56-20.79,9.68-30.51,23.38-28.51,36.58C3373.59,2054.2,3383.3,2042.78,3401.32,2034.38Z" transform="translate(-2169.05 -235.23)"/><path class="cls-48" d="M3418.85,2075.91c-5-3.65-9.22-8.86-9.44-13.62l16.24-1.33a15.74,15.74,0,0,0,8.05,10.88c5.45,3.14,10.21,3.39,14.86,1.11,10.41-5.11-15.48-19.79,2.72-28.72,9.91-4.86,22.43-5,33.49-.67l10.41-5.11,9.44,5.43-10.21,5c5.32,4,6.56,8.19,6.21,12.41l-15.69,0c-.17-3.65-1.47-6.23-5.55-8.58-4.67-2.69-9.12-3.2-13.67-1-9.6,4.71,16.9,19.1-2.41,28.57-9.71,4.76-22.34,5.47-34.59.79l-10.51,5.16-9.44-5.43Z" transform="translate(-2169.05 -235.23)"/><line class="cls-49" x1="1289.84" y1="1893.11" x2="1291.02" y2="1919.24"/><line class="cls-49" x1="1320.12" y1="1890.35" x2="1321.09" y2="1915.78"/><line class="cls-49" x1="1348.73" y1="1883.15" x2="1349.7" y2="1908.58"/><line class="cls-49" x1="1374.23" y1="1871.59" x2="1375.12" y2="1895.04"/><line class="cls-49" x1="1394.84" y1="1854.56" x2="1395.05" y2="1878.4"/><line class="cls-49" x1="1258.03" y1="1892.02" x2="1258.78" y2="1917.45"/><line class="cls-49" x1="1228.98" y1="1886.37" x2="1229.73" y2="1911.8"/><line class="cls-49" x1="1202.76" y1="1876.2" x2="1203.45" y2="1899.66"/><line class="cls-49" x1="1181.04" y1="1860.3" x2="1182.43" y2="1884.12"/><path class="cls-45" d="M3572.39,2018.67c1.1,4,.28,34.14-1.55,38.5-3.27,13.87-15.84,27.29-37.49,37.51-47.5,22.42-120.56,21-163.2-3.25-19.87-11.29-30.85-23-31.6-38-.9-8.09-1.93-30.72-1.93-30.72,1.37-5,7.76,0,11.54-4.72,6.2-9.28,16.84-17.94,31.89-25,47.5-22.42,120.56-21,163.2,3.25C3561.22,2006.39,3570.73,2005.81,3572.39,2018.67Z" transform="translate(-2169.05 -235.23)"/><path class="cls-7" d="M3544.16,1980.16c-42.41-25-116.87-26.68-166.31-3.66s-55.14,62-12.74,87,116.87,26.68,166.31,3.66S3586.57,2005.2,3544.16,1980.16Z" transform="translate(-2169.05 -235.23)"/><path class="cls-48" d="M3544,1976.8c-42.41-25-116.87-26.68-166.31-3.66s-55.14,62-12.74,87,116.87,26.68,166.31,3.66S3586.45,2001.84,3544,1976.8Z" transform="translate(-2169.05 -235.23)"/><path class="cls-7" d="M3517,1987.73c-29.65-17.51-81.7-18.65-116.26-2.56s-38.55,43.33-8.9,60.83,81.7,18.65,116.26,2.56S3546.61,2005.24,3517,1987.73Z" transform="translate(-2169.05 -235.23)"/><path class="cls-52" d="M3400.88,1990.44c34.56-16.09,86.62-14.94,116.26,2.56,11.82,7,18.29,15.5,19.61,24.25.88-10.54-5.6-21.14-19.79-29.52-29.65-17.51-81.7-18.65-116.26-2.56-20.79,9.68-30.51,23.38-28.51,36.58C3373.15,2010.26,3382.85,1998.83,3400.88,1990.44Z" transform="translate(-2169.05 -235.23)"/><path class="cls-53" d="M3418.41,2032c-5-3.65-9.22-8.86-9.44-13.62l16.24-1.33a15.74,15.74,0,0,0,8.05,10.88c5.45,3.14,10.21,3.39,14.86,1.11,10.41-5.11-15.48-19.79,2.72-28.72,9.91-4.86,22.43-5,33.49-.67l10.41-5.11,9.44,5.43-10.21,5c5.32,4,6.56,8.19,6.21,12.41l-15.69,0c-.17-3.65-1.47-6.23-5.55-8.58-4.67-2.69-9.12-3.2-13.67-1-9.6,4.71,16.9,19.1-2.41,28.57-9.71,4.76-22.34,5.47-34.59.79l-10.51,5.16-9.44-5.43Z" transform="translate(-2169.05 -235.23)"/><line class="cls-49" x1="1289.4" y1="1849.16" x2="1290.58" y2="1875.3"/><line class="cls-49" x1="1319.68" y1="1846.4" x2="1320.64" y2="1871.83"/><line class="cls-49" x1="1348.29" y1="1839.2" x2="1349.25" y2="1864.63"/><line class="cls-49" x1="1373.78" y1="1827.65" x2="1374.68" y2="1851.1"/><line class="cls-49" x1="1394.4" y1="1810.61" x2="1394.61" y2="1834.46"/><line class="cls-49" x1="1257.59" y1="1848.07" x2="1258.33" y2="1873.51"/><line class="cls-49" x1="1228.54" y1="1842.42" x2="1229.29" y2="1867.86"/><line class="cls-49" x1="1202.31" y1="1832.26" x2="1203" y2="1855.71"/><line class="cls-49" x1="1180.59" y1="1816.36" x2="1181.99" y2="1840.18"/><g class="cls-50"><path class="cls-51" d="M3448.27,2245s52.17-60.13,54.37-167.77c0,0,66.26-14.33,70-56.77,0,0,.47,24.82-.84,31.44,0,0,3.3,8.82.48,43.58,0,0,3,11.32.72,40.4,0,0,6.88,4.61,2.58,52.87,0,0-1.22,22.66-36.28,39.68C3539.31,2228.41,3507.4,2245.27,3448.27,2245Z" transform="translate(-2169.05 -235.23)"/></g><path class="cls-18" d="M3054.88,2335.79c-27.88-15.16-74.78-14.59-104.76,1.29a62.28,62.28,0,0,0-12.85,8.85c-19.53-6.06-45.71-4.33-63.46,5.07-21.07,11.15-22.26,28.84-2.67,39.49,18.83,10.24,50,10.24,71.07.32,1.3.85,2.66,1.67,4.12,2.47,27.88,15.16,74.78,14.59,104.76-1.29S3082.76,2351,3054.88,2335.79Z" transform="translate(-2169.05 -235.23)"/><path class="cls-6" d="M2923,2349.44l12.35,2.23c9-1.32,13.58-3,16.51.31l.83.95c1.09,2.33-.63,6.07-3.95,7.46l-24.58,10.57c-4.8,1.23-9.84-.56-9.87-5.18,0,0,0-12.93,2.22-13.44C2920.88,2351.3,2919.13,2350.42,2923,2349.44Z" transform="translate(-2169.05 -235.23)"/><path class="cls-7" d="M2929.39,2355.76c-.06,5.42-12.31,5.26-12.25-.16l.2-17.61,12.25.16Z" transform="translate(-2169.05 -235.23)"/><path class="cls-6" d="M2936.39,2335.32c-7.39,10.76-25.73,10.59-29.68,3.29-2.29-43-15.78-88.83-.37-148l-9.37-154.5,66-8.89-16.54,189.41Z" transform="translate(-2169.05 -235.23)"/><path class="cls-54" d="M2893.42,2040.79s-36.3-35.62-40.83-49.48,13.72-35.41,13.72-35.41l28,13.65-9.46,20.13,22.17,44.65Z" transform="translate(-2169.05 -235.23)"/><polygon class="cls-6" points="752.71 1875.48 813.26 1886.86 819.86 1831.9 759.31 1820.53 752.71 1875.48"/><path class="cls-6" d="M2984.38,2364.53l12.35,2.23c9-1.32,13.58-3,16.51.31l.83.95c1.09,2.33-.63,6.07-3.95,7.46L2985.53,2386c-4.8,1.23-9.84-.56-9.87-5.18,0,0,0-12.93,2.22-13.44C2982.28,2366.39,2980.54,2365.51,2984.38,2364.53Z" transform="translate(-2169.05 -235.23)"/><path class="cls-7" d="M2990.79,2370.86c-.06,5.42-12.31,5.26-12.25-.16l.2-17.61,12.25.16Z" transform="translate(-2169.05 -235.23)"/><path class="cls-6" d="M2997.79,2350.42c-7.39,10.76-25.73,10.59-29.68,3.29-2.29-43-15.78-88.83-.37-148l-17.87-179.42,74.49,16-16.54,189.41Z" transform="translate(-2169.05 -235.23)"/><path class="cls-41" d="M2968.3,1843.2c-.14,12.85-7.51,18.73-16.48,13.14s-11.21-21.42-11.73-34.25c-.25-6.16,3.25-17.87,12.22-12.28S2968.43,1830.36,2968.3,1843.2Z" transform="translate(-2169.05 -235.23)"/><path class="cls-54" d="M2983.76,1839.06c-1.42,12.78-12.91,19.46-21.25,12.85s-14-22.31-12.54-35.09,9.33-17.78,17.68-11.18S2985.18,1826.29,2983.76,1839.06Z" transform="translate(-2169.05 -235.23)"/><path class="cls-54" d="M2951.95,1876.08l-1.19-.44c-4-1.49-6.12-6.26-4.68-10.59l8.11-24.42a7.73,7.73,0,0,1,9.91-5.16l1.19.44c4,1.49,6.12,6.26,4.68,10.59l-4.59,24.66C2963.93,1875.48,2956,1877.57,2951.95,1876.08Z" transform="translate(-2169.05 -235.23)"/><path class="cls-6" d="M2942.2,1846.92s1.49,8.82,16.24,8.29c11.14-.4,5-21.42,15.47-25.61,14.22-5.66,10.06-20.49,4.42-25.7s-13.53-3.14-23.26-.54C2944.78,1806.1,2930.48,1813.27,2942.2,1846.92Z" transform="translate(-2169.05 -235.23)"/><path class="cls-54" d="M2976.77,1835.27a5.27,5.27,0,1,1-4.6-6.23A5.44,5.44,0,0,1,2976.77,1835.27Z" transform="translate(-2169.05 -235.23)"/><path class="cls-4" d="M2890.46,2049.76c-.28-45.27,7-52.25,3.17-91.22-2.66-74.69,7-89.37,29.39-95.45l15.13-2.53c4.8.75,9.31,2.91,14.06,3.93,19.91,4.27,54.17,12.35,68.68,19.93,12.92,6.75-7,18.81-6.32,35.23,5.62,48,9.87,120.36,11.6,144.08C3020.59,2098.06,2903.49,2072.23,2890.46,2049.76Z" transform="translate(-2169.05 -235.23)"/><path class="cls-55" d="M3020.17,1925l-10.92,13.93c-10.83,59.47-1.95,115.55-23,141.68,13.59-.67,26.11.12,35-7.6.5,0,4.56-4.22,4.84-11.59Z" transform="translate(-2169.05 -235.23)"/><path class="cls-7" d="M2935.51,1859.69s-3.18,11,8.85,14.47,31.27-4.52,31.27-4.52S2961.93,1855.55,2935.51,1859.69Z" transform="translate(-2169.05 -235.23)"/><path class="cls-6" d="M2973.13,1838.69h0a1.79,1.79,0,0,1-1.83-1.78l-2.09-12.23c0-1,2.39-.22,3.35-.28h0c1-.06,3.77-.76,3.81.28l-1.57,12A1.87,1.87,0,0,1,2973.13,1838.69Z" transform="translate(-2169.05 -235.23)"/><path class="cls-54" d="M3134.75,1944s-27.68,44.41-40.34,51.67c-4.13,2.37-6.94,0-10.51-2-9.88-5.74-46.4-32.32-46.4-32.32l10.17-40.55,38.54,44.3,39.45-33.06Z" transform="translate(-2169.05 -235.23)"/><path class="cls-4" d="M3002.67,1940.29l40.68,35.49c14.25,14.73,39.1-24.57,39-38.46,0-1.54-61.48-52.91-61.48-52.91S2993.45,1913.57,3002.67,1940.29Z" transform="translate(-2169.05 -235.23)"/><path class="cls-54" d="M3125.18,1940.48h0a6.94,6.94,0,0,0,9.56,3.55l8.6-4.5a8,8,0,0,0,3.36-10.31h0a6.94,6.94,0,0,0-9.56-3.55l-8.6,4.5A8,8,0,0,0,3125.18,1940.48Z" transform="translate(-2169.05 -235.23)"/><path class="cls-4" d="M2901.65,1878.83l-43.5,82.48s30.08,27.46,47.43,19.77,10.34-96.15,10.34-96.15Z" transform="translate(-2169.05 -235.23)"/><path class="cls-56" d="M3038.83,1971.84s13-.18,24.34-14.9,13.11-25,13.11-25" transform="translate(-2169.05 -235.23)"/><line class="cls-56" x1="725.7" y1="1743.96" x2="728.45" y2="1698.27"/><path class="cls-56" d="M2864.42,1949.43s6,14.84,30.79,22.29" transform="translate(-2169.05 -235.23)"/><line class="cls-56" x1="844.59" y1="1714.18" x2="832.12" y2="1702.96"/><path class="cls-18" d="M4204.61,2283.58l476.45-154.85c57.17-18.58,55.67-100-2.14-116.44l-310.31-88.38Z" transform="translate(-2169.05 -235.23)"/><path class="cls-57" d="M4532.83,2037.54l.24-73.82-237.8,4.46c-2.35-.66-5.17-.57-6.3.19l-358,159.46,1.73,74c.31,3.9.06,8,2.41,8.64l263.17,73.34c2.35.66,5.17.57,6.3-.19l322.23-233.89C4530.39,2046.93,4532.56,2043.08,4532.83,2037.54Z" transform="translate(-2169.05 -235.23)"/><path class="cls-58" d="M4532.83,2037.54l-.14-72.69-237.42,3.33c-2.35-.66-99.29,62.08-100.41,62.84,0,0,5.23,253.14,6.11,253.18a6.6,6.6,0,0,0,3.63-.61l322.23-233.89C4530.39,2046.93,4532.56,2043.08,4532.83,2037.54Z" transform="translate(-2169.05 -235.23)"/><path class="cls-54" d="M4202.68,2203.54l330.39-239.82c1.13-.76.18-5.57-2.17-6.23l-237.56-69.36c-2.35-.66-5.17-.57-6.3.19l-356,239.5c-1.13.76-.13,1.9,2.22,2.56l263.17,73.34C4198.74,2204.38,4201.56,2204.3,4202.68,2203.54Z" transform="translate(-2169.05 -235.23)"/><path class="cls-59" d="M4181.29,2025.63c21.94-14.76,67.21-19.07,101.11-9.62s43.6,29.07,21.66,43.83-67.21,19.07-101.11,9.62S4159.35,2040.39,4181.29,2025.63Z" transform="translate(-2169.05 -235.23)"/><path class="cls-59" d="M3993.22,2116.14c2.37,2.88,6.89,5.42,12.66,7l167.34,46.64a49,49,0,0,0,15.61,1.73c4.18-.25,7.76-1.15,10-2.66l284.63-191.46c2.81-1.89,3.29-4.61,1.33-7.47l-.16-.2.41-.27-.8-.22c-2.37-2.88-6.9-5.42-12.66-7l-167.34-46.64c-9.77-2.72-20.78-2.32-25.62.93L3994,2108c-2.56,1.72-3.17,4.13-1.78,6.7l-1.24.84Zm150.25,37.76-100.5-28c10.46-9.76,5.24-21.31-12.66-28.57l236.95-159.39c22.69,4,49.13,1.32,65.31-6.84l100.5,28c-10.7,10-5,21.84,14,29.07l-236.66,159.2C4187.33,2142.89,4160,2145.54,4143.47,2153.89Z" transform="translate(-2169.05 -235.23)"/><path class="cls-60" d="M3932.13,2170.88l260.17,69.44c8.79,2.45,20.22-2.88,27.66-8.17L4533,2001" transform="translate(-2169.05 -235.23)"/><path class="cls-57" d="M4534.07,1936.68l.24-73.82-237.8,4.46c-2.35-.66-5.17-.57-6.3.19l-358,159.46,1.73,74c.31,3.9.06,8,2.42,8.64l263.17,73.34c2.35.66,5.17.57,6.3-.19l322.23-233.89C4531.63,1946.07,4533.8,1942.22,4534.07,1936.68Z" transform="translate(-2169.05 -235.23)"/><path class="cls-58" d="M4534.07,1936.68l.24-73.82-237.8,4.46c-2.35-.66-99.29,62.08-100.41,62.84,0,0,5.23,253.14,6.11,253.18a6.6,6.6,0,0,0,3.63-.61l322.23-233.89C4531.63,1946.07,4533.8,1942.22,4534.07,1936.68Z" transform="translate(-2169.05 -235.23)"/><path class="cls-61" d="M4203.92,2102.68l330.39-239.82c1.13-.76.18-5.57-2.17-6.22l-237.56-69.36c-2.35-.66-5.17-.57-6.3.19l-356,239.5c-1.13.76-.13,1.9,2.22,2.56l263.17,73.34C4200,2103.52,4202.79,2103.43,4203.92,2102.68Z" transform="translate(-2169.05 -235.23)"/><path class="cls-62" d="M4182.53,1924.77c21.94-14.76,67.21-19.07,101.11-9.62s43.6,29.07,21.66,43.83-67.21,19.07-101.11,9.62S4160.59,1939.53,4182.53,1924.77Z" transform="translate(-2169.05 -235.23)"/><path class="cls-62" d="M3994.46,2015.28c2.37,2.88,6.89,5.42,12.66,7l167.34,46.64a49,49,0,0,0,15.61,1.73c4.18-.25,7.76-1.15,10-2.66l284.63-191.46c2.81-1.89,3.29-4.61,1.33-7.47l-.16-.2.4-.27-.8-.22c-2.37-2.88-6.9-5.42-12.66-7l-167.34-46.64c-9.77-2.72-20.78-2.31-25.62.93l-284.63,191.46c-2.56,1.72-3.17,4.13-1.78,6.7l-1.24.84ZM4144.7,2053l-100.5-28c10.46-9.76,5.24-21.31-12.66-28.57l236.95-159.39c22.69,4,49.13,1.32,65.31-6.84l100.5,28c-10.7,10-5,21.84,14,29.07L4211.6,2046.5C4188.57,2042,4161.27,2044.68,4144.7,2053Z" transform="translate(-2169.05 -235.23)"/><path class="cls-60" d="M3933.36,2070l260.17,69.44c8.79,2.45,20.22-2.88,27.66-8.17l313-231.13" transform="translate(-2169.05 -235.23)"/><path class="cls-18" d="M3507,2285.12c-47.13-24.13-134.65-24.67-195.48-1.21s-71.92,62-24.79,86.17,134.65,24.67,195.48,1.21S3554.14,2309.25,3507,2285.12Z" transform="translate(-2169.05 -235.23)"/><path class="cls-45" d="M3468.2,2280.45c1.18,4.35-.07,37.15-2.16,41.89-3.78,15.07-17.88,29.61-42,40.61-53,24.14-134,22.16-181-4.43-21.92-12.39-34-25.21-34.63-41.52-.91-8.81-1.79-33.44-1.79-33.44,1.57-5.42,8.61,0,12.86-5.08,7-10.06,18.88-19.43,35.67-27.08,53-24.14,134-22.16,181,4.43C3455.95,2267,3466.51,2266.45,3468.2,2280.45Z" transform="translate(-2169.05 -235.23)"/><path class="cls-7" d="M3437.31,2238.39c-46.77-27.48-129.37-29.68-184.49-4.9s-61.88,67.14-15.11,94.62,129.37,29.68,184.49,4.9S3484.09,2265.87,3437.31,2238.39Z" transform="translate(-2169.05 -235.23)"/><path class="cls-46" d="M3437.22,2234.74c-46.77-27.48-129.37-29.68-184.49-4.9s-61.88,67.14-15.11,94.62,129.37,29.68,184.49,4.9S3484,2262.22,3437.22,2234.74Z" transform="translate(-2169.05 -235.23)"/><path class="cls-7" d="M3407.05,2246.48c-32.7-19.21-90.44-20.75-129-3.43s-43.26,46.94-10.56,66.15,90.44,20.75,129,3.43S3439.75,2265.7,3407.05,2246.48Z" transform="translate(-2169.05 -235.23)"/><path class="cls-47" d="M3278.22,2248.79c38.53-17.32,96.28-15.79,129,3.43,13,7.66,20.12,17,21.49,26.5,1.09-11.47-6-23-21.62-32.23-32.7-19.21-90.44-20.75-129-3.43-23.17,10.42-34.11,25.28-32,39.65C3247.22,2270.21,3258.12,2257.83,3278.22,2248.79Z" transform="translate(-2169.05 -235.23)"/><path class="cls-48" d="M3297.2,2294.08c-5.54-4-10.13-9.69-10.32-14.88l18-1.36a17,17,0,0,0,8.81,11.89c6,3.44,11.29,3.75,16.47,1.29,11.61-5.5-17-21.62,3.33-31.24,11-5.24,24.94-5.3,37.17-.54l11.61-5.5,10.41,6-11.38,5.4c5.86,4.41,7.19,9,6.75,13.54l-17.41-.06c-.15-4-1.56-6.79-6.07-9.37-5.15-3-10.09-3.53-15.16-1.13-10.71,5.08,18.53,20.87-3,31.08-10.82,5.13-24.85,5.82-38.39.67l-11.72,5.56-10.41-6Z" transform="translate(-2169.05 -235.23)"/><line class="cls-49" x1="1171.99" y1="2116.12" x2="1173.01" y2="2144.57"/><line class="cls-49" x1="1205.62" y1="2113.29" x2="1206.4" y2="2140.96"/><line class="cls-49" x1="1237.45" y1="2105.6" x2="1238.23" y2="2133.28"/><line class="cls-49" x1="1265.87" y1="2093.17" x2="1266.59" y2="2118.69"/><line class="cls-49" x1="1288.93" y1="2074.74" x2="1288.9" y2="2100.7"/><line class="cls-49" x1="1136.7" y1="2114.76" x2="1137.25" y2="2142.45"/><line class="cls-49" x1="1104.54" y1="2108.45" x2="1105.08" y2="2136.13"/><line class="cls-49" x1="1075.55" y1="2097.25" x2="1076.05" y2="2122.78"/><line class="cls-49" x1="1051.63" y1="2079.83" x2="1052.91" y2="2105.75"/><path class="cls-45" d="M3469.39,2229.15c1.18,4.35-.07,37.15-2.16,41.89-3.78,15.07-17.88,29.61-42,40.61-53,24.14-134,22.16-181-4.43-21.92-12.39-34-25.21-34.63-41.52-.91-8.81-1.79-33.44-1.79-33.44,1.58-5.42,8.61,0,12.86-5.08,7-10.06,18.88-19.43,35.67-27.08,53-24.14,134-22.16,181,4.43C3457.14,2215.73,3467.7,2215.15,3469.39,2229.15Z" transform="translate(-2169.05 -235.23)"/><path class="cls-7" d="M3438.5,2187.09c-46.77-27.48-129.37-29.68-184.49-4.9s-61.88,67.14-15.11,94.62,129.37,29.68,184.49,4.9S3485.27,2214.57,3438.5,2187.09Z" transform="translate(-2169.05 -235.23)"/><path class="cls-48" d="M3438.41,2183.44c-46.77-27.48-129.37-29.68-184.49-4.9s-61.88,67.14-15.11,94.62,129.37,29.68,184.49,4.9S3485.19,2210.92,3438.41,2183.44Z" transform="translate(-2169.05 -235.23)"/><path class="cls-7" d="M3408.24,2195.18c-32.7-19.21-90.44-20.75-129-3.43s-43.26,46.94-10.56,66.15,90.44,20.75,129,3.43S3440.94,2214.4,3408.24,2195.18Z" transform="translate(-2169.05 -235.23)"/><path class="cls-45" d="M3279.41,2197.49c38.53-17.32,96.28-15.79,129,3.43,13,7.66,20.12,17,21.49,26.5,1.09-11.47-6-23-21.62-32.23-32.7-19.21-90.44-20.75-129-3.43-23.17,10.42-34.11,25.28-32,39.65C3248.41,2218.91,3259.31,2206.53,3279.41,2197.49Z" transform="translate(-2169.05 -235.23)"/><path class="cls-48" d="M3298.39,2242.78c-5.54-4-10.13-9.69-10.32-14.88l18-1.36a17,17,0,0,0,8.81,11.89c6,3.44,11.29,3.75,16.47,1.29,11.61-5.5-17-21.62,3.33-31.24,11-5.24,24.94-5.3,37.17-.54l11.61-5.5,10.41,6-11.38,5.4c5.86,4.41,7.19,9,6.75,13.54l-17.41-.06c-.15-4-1.56-6.79-6.07-9.37-5.15-3-10.09-3.53-15.16-1.13-10.71,5.07,18.53,20.87-3,31.08-10.82,5.13-24.85,5.82-38.39.67l-11.72,5.56-10.41-6Z" transform="translate(-2169.05 -235.23)"/><line class="cls-49" x1="1173.18" y1="2064.82" x2="1174.2" y2="2093.27"/><line class="cls-49" x1="1206.81" y1="2061.98" x2="1207.59" y2="2089.66"/><line class="cls-49" x1="1238.64" y1="2054.3" x2="1239.42" y2="2081.98"/><line class="cls-49" x1="1267.05" y1="2041.87" x2="1267.78" y2="2067.39"/><line class="cls-49" x1="1290.12" y1="2023.44" x2="1290.09" y2="2049.4"/><line class="cls-49" x1="1137.89" y1="2063.46" x2="1138.44" y2="2091.14"/><line class="cls-49" x1="1105.73" y1="2057.15" x2="1106.27" y2="2084.83"/><line class="cls-49" x1="1076.74" y1="2045.95" x2="1077.24" y2="2071.47"/><line class="cls-49" x1="1052.82" y1="2028.53" x2="1054.1" y2="2054.45"/><g class="cls-50"><path class="cls-51" d="M3329.18,2379.7s60-20.93,64.73-87.86c0,0,75.34-17.63,75.6-62.12,0,0,.54,33.23-2,40.47,0,0,2.94,11.11-.34,46.41,0,0-.75,22.93-31.9,40.56C3435.28,2357.16,3396.12,2382.08,3329.18,2379.7Z" transform="translate(-2169.05 -235.23)"/></g><polyline class="cls-63" points="1883.95 1089.34 1854.84 1082.92 1804.24 1143.11"/><polygon class="cls-64" points="750.26 534.54 436.84 451.43 437.84 405.26 751.27 488.37 750.26 534.54"/><polygon class="cls-21" points="748.4 619.72 434.98 536.61 435.99 490.44 749.41 573.55 748.4 619.72"/><polygon class="cls-65" points="574.33 573.56 434.98 536.61 435.99 490.44 575.34 527.39 574.33 573.56"/><polygon class="cls-21" points="746.69 698.41 433.26 615.3 434.27 569.13 747.7 652.24 746.69 698.41"/><polygon class="cls-19" points="670.19 678.12 433.26 615.3 434.27 569.13 671.2 631.95 670.19 678.12"/><line class="cls-66" x1="1832.4" y1="321.56" x2="1854.76" y2="374.9"/><line class="cls-66" x1="1742.17" y1="415.42" x2="1789.42" y2="442.17"/><line class="cls-66" x1="1776.3" y1="359.06" x2="1815.17" y2="400.95"/><path class="cls-8" d="M4266.63,1152.41l-259.09-67.32c-12.36-3.21-21.92-16.32-21.37-29.29l16.07-378.09c.55-13,11-20.87,23.37-17.66l259.09,67.32c12.36,3.21,21.92,16.32,21.37,29.29L4290,1134.74C4289.45,1147.71,4279,1155.62,4266.63,1152.41Z" transform="translate(-2169.05 -235.23)"/><path class="cls-8" d="M4249.2,857.34l-204.13-53c-8-2.07-14.16-10.54-13.8-18.92l3-71c.36-8.37,7.11-13.48,15.09-11.41l204.13,53c8,2.07,14.16,10.54,13.8,18.92l-3,71C4263.93,854.31,4257.18,859.41,4249.2,857.34Z" transform="translate(-2169.05 -235.23)"/><polygon class="cls-7" points="1914.49 667.54 1860.42 653.49 1861.94 617.51 1916.02 631.57 1914.49 667.54"/><polygon class="cls-7" points="2001.39 690.12 1947.32 676.07 1948.85 640.1 2002.92 654.15 2001.39 690.12"/><polygon class="cls-7" points="2089.11 712.91 2035.04 698.86 2036.57 662.89 2090.64 676.94 2089.11 712.91"/><polygon class="cls-7" points="1911.63 734.84 1857.56 720.79 1859.09 684.82 1913.16 698.87 1911.63 734.84"/><polygon class="cls-7" points="1998.53 757.42 1944.46 743.37 1945.99 707.4 2000.06 721.45 1998.53 757.42"/><polygon class="cls-7" points="2086.25 780.21 2032.18 766.16 2033.7 730.19 2087.78 744.24 2086.25 780.21"/><polygon class="cls-7" points="1908.77 802.14 1854.7 788.09 1856.22 752.12 1910.3 766.17 1908.77 802.14"/><polygon class="cls-7" points="1995.67 824.72 1941.6 810.67 1943.13 774.7 1997.2 788.75 1995.67 824.72"/><polygon class="cls-4" points="2083.39 847.51 2029.32 833.46 2030.85 797.49 2084.92 811.54 2083.39 847.51"/><path class="cls-67" d="M4057.87,783.29h0c-6-1.55-10.64-8-10.38-14.22h0c.27-6.27,5.37-10.13,11.35-8.58h0c6,1.55,10.64,8,10.38,14.22h0C4068.95,781,4063.84,784.84,4057.87,783.29Z" transform="translate(-2169.05 -235.23)"/><line class="cls-8" x1="1880.47" y1="824.9" x2="2049.82" y2="868.9"/><path class="cls-68" d="M2277.35,1792.09c21,6.76,50.27,22.72,84.45,59.33,69.75,74.72,48.8,129.74,48.8,129.74" transform="translate(-2169.05 -235.23)"/><path class="cls-68" d="M2242.67,1788s4.84-1.11,13.62-.34" transform="translate(-2169.05 -235.23)"/><path class="cls-68" d="M2509,2057.5s126,8.13,208.76-56.32" transform="translate(-2169.05 -235.23)"/><path class="cls-68" d="M2565.62,2165.32s62,22.74,113.17-9.19" transform="translate(-2169.05 -235.23)"/><line class="cls-68" x1="529.58" y1="1852.33" x2="518.54" y2="1899.38"/><path class="cls-68" d="M2309.19,2080.47s23.19,30.15,111.18,15.44" transform="translate(-2169.05 -235.23)"/><path class="cls-68" d="M2252,1956s41.18,52.55,107.23,59.31" transform="translate(-2169.05 -235.23)"/><polyline class="cls-68" points="434.98 536.61 748.4 619.72 749.41 573.55"/><line class="cls-68" x1="111.85" y1="1750.49" x2="129.63" y2="1840.18"/><line class="cls-68" x1="350.54" y1="1843.99" x2="368.12" y2="1912.04"/></g></g></svg>